<svg width="40" height="40" viewBox="0 0 40 40" fill="none" xmlns="http://www.w3.org/2000/svg">
<path d="M19.2859 29.9747C18.0617 29.8884 16.88 29.5826 15.7734 29.0655C15.5734 28.9722 15.3442 28.9613 15.1359 29.0372C14.9284 29.113 14.7592 29.268 14.6654 29.4684L13.6196 31.7109C11.3713 30.4834 9.51627 28.6284 8.28919 26.3801L10.5313 25.3347C10.7317 25.2413 10.8871 25.0722 10.9625 24.8643C11.0379 24.6563 11.0275 24.4268 10.9342 24.2268C10.4175 23.1201 10.1113 21.9384 10.025 20.7134C9.96336 19.8463 9.23461 19.1668 8.36586 19.1668H2.50002C2.04002 19.1668 1.66669 19.5401 1.66669 20.0001C1.66669 30.1093 9.89086 38.3334 20 38.3334C20.46 38.3334 20.8334 37.9601 20.8334 37.5001V31.6343C20.8334 30.7655 20.1538 30.0368 19.2859 29.9747ZM19.1667 36.6459C10.6379 36.2243 3.77585 29.3618 3.35419 20.833L8.36294 20.8313C8.44377 21.9809 8.69086 23.098 9.09877 24.1638L6.80586 25.233C6.60544 25.3263 6.45002 25.4955 6.37461 25.7034C6.29919 25.9113 6.30919 26.1405 6.40252 26.3409C7.89252 29.5301 10.47 32.1076 13.6592 33.5976C13.8588 33.6909 14.0879 33.7013 14.2967 33.6255C14.5046 33.5497 14.6738 33.3947 14.7671 33.1943L15.8363 30.9013C16.9021 31.3093 18.0188 31.5555 19.1667 31.6338V36.6459ZM18.3334 18.3334V17.5001C18.3334 17.0405 17.9596 16.6668 17.5 16.6668H15C14.54 16.6668 14.1667 16.2934 14.1667 15.8334C14.1667 15.3734 14.54 15.0001 15 15.0001H17.5C18.8788 15.0001 20 16.1213 20 17.5001V18.3334C20 19.7122 18.8788 20.8334 17.5 20.8334H16.6667C16.2071 20.8334 15.8334 21.2072 15.8334 21.6668V23.3334H19.1667C19.6267 23.3334 20 23.7068 20 24.1668C20 24.6268 19.6267 25.0001 19.1667 25.0001H15C14.54 25.0001 14.1667 24.6268 14.1667 24.1668V21.6668C14.1667 20.288 15.2879 19.1668 16.6667 19.1668H17.5C17.9596 19.1668 18.3334 18.793 18.3334 18.3334ZM25.8334 20.8334H22.5C22.04 20.8334 21.6667 20.4601 21.6667 20.0001V15.8334C21.6667 15.3734 22.04 15.0001 22.5 15.0001C22.96 15.0001 23.3334 15.3734 23.3334 15.8334V19.1668H25.8334V15.8334C25.8334 15.3734 26.2067 15.0001 26.6667 15.0001C27.1267 15.0001 27.5 15.3734 27.5 15.8334V24.1668C27.5 24.6268 27.1267 25.0001 26.6667 25.0001C26.2067 25.0001 25.8334 24.6268 25.8334 24.1668V20.8334ZM38.3334 20.0001C38.3334 28.2909 32.7459 35.5751 24.7459 37.7134C24.6738 37.7326 24.6013 37.7418 24.53 37.7418C24.1617 37.7418 23.825 37.4955 23.725 37.1234C23.6063 36.6788 23.8704 36.2222 24.315 36.103C26.9329 35.4034 29.2646 34.0951 31.1796 32.3584L29.4284 30.6072C29.1029 30.2818 29.1029 29.7543 29.4284 29.4288C29.7538 29.1034 30.2813 29.1034 30.6067 29.4288L32.3592 31.1813C34.8817 28.3876 36.448 24.7563 36.6438 20.8338H34.1667C33.7067 20.8338 33.3334 20.4605 33.3334 20.0005C33.3334 19.5405 33.7067 19.1672 34.1667 19.1672H36.6455C36.4492 15.1988 34.858 11.5913 32.3534 8.8255L30.6063 10.5726C30.4434 10.7355 30.2305 10.8168 30.0171 10.8168C29.8038 10.8168 29.5909 10.7355 29.4279 10.5726C29.1025 10.2472 29.1025 9.71967 29.4279 9.39425L31.175 7.64717C28.4092 5.14217 24.8017 3.55092 20.8334 3.35467V5.83342C20.8334 6.29342 20.46 6.66675 20 6.66675C19.54 6.66675 19.1667 6.29342 19.1667 5.83342V3.35633C15.2446 3.55217 11.6129 5.11842 8.81919 7.64092L10.5717 9.39342C10.8971 9.71884 10.8971 10.2463 10.5717 10.5718C10.4088 10.7347 10.1959 10.8159 9.98252 10.8159C9.76919 10.8159 9.55627 10.7347 9.39336 10.5718L7.64211 8.8205C5.90544 10.7355 4.59711 13.0668 3.89752 15.6847C3.77835 16.1293 3.32127 16.3934 2.8771 16.2747C2.43252 16.1559 2.16835 15.6993 2.2871 15.2543C4.42502 7.25425 11.7092 1.66675 20 1.66675C30.1092 1.66675 38.3334 9.89092 38.3334 20.0001Z" fill="#A9FF35"/>
</svg>
