<svg width="28" height="28" viewBox="0 0 28 28" fill="none" xmlns="http://www.w3.org/2000/svg">
<rect width="28" height="28" rx="14" fill="url(#paint0_linear_2958_29165)"/>
<path d="M9.72276 21.5H18.2772C19.7786 21.5 21 20.3323 21 18.8969V11.1154C21 10.8615 20.7828 10.6538 20.5172 10.6538H17.6207V9.96154C17.6207 8.05308 15.9962 6.5 14 6.5C12.0038 6.5 10.3793 8.05308 10.3793 9.96154V10.6538H7.48276C7.21724 10.6538 7 10.8615 7 11.1154V18.8969C7 20.3323 8.22138 21.5 9.72276 21.5ZM11.3448 9.96154C11.3448 8.56077 12.5348 7.42308 14 7.42308C15.4652 7.42308 16.6552 8.56077 16.6552 9.96154V10.6538H11.3448V9.96154ZM7.96552 11.5769H10.3793V12.7308C10.3793 12.9846 10.5966 13.1923 10.8621 13.1923C11.1276 13.1923 11.3448 12.9846 11.3448 12.7308V11.5769H16.6552V12.7308C16.6552 12.9846 16.8724 13.1923 17.1379 13.1923C17.4034 13.1923 17.6207 12.9846 17.6207 12.7308V11.5769H20.0345V18.8969C20.0345 19.8223 19.2452 20.5769 18.2772 20.5769H9.72276C8.75483 20.5769 7.96552 19.8223 7.96552 18.8969V11.5769Z" fill="#1E242E"/>
<defs>
<linearGradient id="paint0_linear_2958_29165" x1="28" y1="-3.65562e-06" x2="-2.79461" y2="3.51472" gradientUnits="userSpaceOnUse">
<stop stop-color="#A9FF35"/>
<stop offset="1" stop-color="#BFFF3A"/>
</linearGradient>
</defs>
</svg>
