<svg width="16" height="17" viewBox="0 0 16 17" fill="none" xmlns="http://www.w3.org/2000/svg">
<path d="M3.72273 16H12.2772C13.7786 16 15 14.8323 15 13.3969V5.61538C15 5.36154 14.7827 5.15385 14.5172 5.15385H11.6207V4.46154C11.6207 2.55308 9.99618 1 7.99997 1C6.00376 1 4.37928 2.55308 4.37928 4.46154V5.15385H1.48273C1.21721 5.15385 0.999969 5.36154 0.999969 5.61538V13.3969C0.999969 14.8323 2.22135 16 3.72273 16ZM5.3448 4.46154C5.3448 3.06077 6.5348 1.92308 7.99997 1.92308C9.46514 1.92308 10.6551 3.06077 10.6551 4.46154V5.15385H5.3448V4.46154ZM1.96549 6.07692H4.37928V7.23077C4.37928 7.48462 4.59652 7.69231 4.86204 7.69231C5.12756 7.69231 5.3448 7.48462 5.3448 7.23077V6.07692H10.6551V7.23077C10.6551 7.48462 10.8724 7.69231 11.1379 7.69231C11.4034 7.69231 11.6207 7.48462 11.6207 7.23077V6.07692H14.0345V13.3969C14.0345 14.3223 13.2451 15.0769 12.2772 15.0769H3.72273C2.7548 15.0769 1.96549 14.3223 1.96549 13.3969V6.07692Z" fill="#A9FF35"/>
</svg>
