<svg width="40" height="40" viewBox="0 0 40 40" fill="none" xmlns="http://www.w3.org/2000/svg">
<path d="M20 37.8124C19.9179 37.8124 19.8366 37.7963 19.7608 37.7648C19.685 37.7334 19.6161 37.6874 19.558 37.6294C19.5 37.5713 19.4539 37.5024 19.4225 37.4266C19.3911 37.3508 19.375 37.2695 19.375 37.1874V19.6728C19.376 19.6365 19.3801 19.6003 19.3872 19.5647C19.4113 19.4429 19.4712 19.3311 19.5593 19.2437C19.5813 19.2221 19.6048 19.2021 19.6295 19.1839C19.6758 19.1496 19.7268 19.122 19.7809 19.1021L35.3931 12.857C35.5142 12.8087 35.6474 12.7994 35.7741 12.8306C35.9007 12.8618 36.0144 12.9319 36.0992 13.0309L39.8499 17.4059C39.9127 17.4794 39.9577 17.5665 39.9812 17.6603C40.0047 17.7541 40.0061 17.8521 39.9854 17.9466C39.9646 18.0411 39.9222 18.1294 39.8615 18.2047C39.8009 18.2801 39.7235 18.3403 39.6356 18.3806L36.25 19.9328V29.6874C36.25 29.8052 36.2168 29.9206 36.154 30.0203C36.0913 30.1199 36.0016 30.1998 35.8954 30.2508L20.2704 37.7507C20.1861 37.7915 20.0936 37.8126 20 37.8124ZM20.625 21.3494V36.1944L35 29.2944V20.5059L24.6399 25.2556C24.5175 25.3116 24.3803 25.3266 24.2487 25.2984C24.1171 25.2703 23.9981 25.2005 23.9093 25.0994L20.625 21.3494ZM21.0516 19.9395L24.5423 23.9251L35.3583 18.9666L35.3711 18.9605L38.3612 17.5897L35.4419 14.1839L21.0516 19.9395Z" fill="#A9FF35"/>
<path d="M19.9994 37.8125C19.906 37.8126 19.8137 37.7915 19.7296 37.7509L4.1046 30.2509C3.99839 30.1999 3.90874 30.12 3.84599 30.0204C3.78325 29.9207 3.74997 29.8053 3.75 29.6875V19.5251C3.75 19.3594 3.81585 19.2004 3.93306 19.0832C4.05027 18.966 4.20924 18.9001 4.375 18.9001C4.54076 18.9001 4.69973 18.966 4.81694 19.0832C4.93415 19.2004 5 19.3594 5 19.5251V29.2944L20.2704 36.6241C20.3981 36.6855 20.5012 36.7884 20.5628 36.916C20.6243 37.0436 20.6407 37.1884 20.6092 37.3265C20.5777 37.4646 20.5002 37.588 20.3894 37.6763C20.2786 37.7646 20.1411 37.8126 19.9994 37.8125Z" fill="#A9FF35"/>
<path d="M15.625 25.3125C15.5351 25.3126 15.4461 25.2933 15.3644 25.2558L0.364389 18.3728C0.27643 18.3323 0.199071 18.272 0.1384 18.1965C0.0777294 18.1211 0.0354039 18.0325 0.0147558 17.9379C-0.00589234 17.8433 -0.00429948 17.7452 0.019409 17.6513C0.0431174 17.5575 0.0882943 17.4704 0.151383 17.3969L3.91176 13.0299C3.9967 12.931 4.11048 12.8611 4.23712 12.8301C4.36376 12.7992 4.49692 12.8086 4.61793 12.8571L20.2325 19.1071C20.3253 19.1443 20.4077 19.2031 20.473 19.2787C20.5383 19.3543 20.5846 19.4444 20.6079 19.5415C20.6312 19.6386 20.6309 19.7399 20.607 19.8369C20.5831 19.9339 20.5363 20.0237 20.4706 20.0989L16.0956 25.0989C16.0369 25.166 15.9646 25.2198 15.8834 25.2567C15.8023 25.2935 15.7141 25.3125 15.625 25.3125ZM1.64064 17.583L15.462 23.9252L18.9484 19.9396L4.56788 14.184L1.64064 17.583Z" fill="#A9FF35"/>
<path d="M4.38782 14.0624C4.24439 14.0625 4.1053 14.0132 3.99389 13.9229C3.88249 13.8325 3.80555 13.7066 3.77599 13.5663C3.74643 13.4259 3.76605 13.2797 3.83156 13.1521C3.89706 13.0245 4.00447 12.9233 4.13574 12.8655L7.87964 11.2158C8.03129 11.1492 8.20317 11.1456 8.35749 11.2057C8.51181 11.2658 8.63595 11.3848 8.70261 11.5364C8.76927 11.688 8.77301 11.8598 8.713 12.0142C8.65298 12.1686 8.53413 12.2928 8.38257 12.3596L4.63867 14.0093C4.55965 14.0442 4.47422 14.0623 4.38782 14.0624Z" fill="#A9FF35"/>
<path d="M35.6243 14.0625C35.5376 14.0624 35.4517 14.0443 35.3723 14.0094C34.6447 13.6871 33.916 13.3665 33.186 13.0475C32.456 12.727 31.7264 12.406 30.9973 12.0843C30.922 12.0512 30.854 12.0036 30.7972 11.9443C30.7403 11.8849 30.6958 11.8148 30.666 11.7382C30.6363 11.6616 30.6219 11.5798 30.6238 11.4977C30.6257 11.4155 30.6438 11.3345 30.677 11.2593C30.7102 11.1841 30.7579 11.1162 30.8174 11.0594C30.8769 11.0027 30.947 10.9583 31.0237 10.9287C31.1004 10.8991 31.1822 10.8849 31.2644 10.8869C31.3465 10.8889 31.4275 10.9072 31.5026 10.9405C32.2302 11.2628 32.9589 11.5834 33.6889 11.9024C34.4189 12.2229 35.1485 12.5439 35.8776 12.8656C36.0089 12.9235 36.1162 13.0248 36.1816 13.1525C36.247 13.2802 36.2664 13.4265 36.2367 13.5668C36.207 13.7072 36.13 13.833 36.0185 13.9233C35.907 14.0135 35.7678 14.0627 35.6243 14.0625Z" fill="#A9FF35"/>
<path d="M18.125 19.5654C18.0429 19.5655 17.9616 19.5493 17.8858 19.5179C17.8099 19.4866 17.741 19.4405 17.683 19.3825C17.6249 19.3244 17.5789 19.2555 17.5475 19.1797C17.5161 19.1038 17.5 19.0225 17.5 18.9404V11.5625C17.4999 11.4314 17.5412 11.3035 17.6179 11.1972C17.6946 11.0908 17.8028 11.0112 17.9272 10.9699L31.0522 6.59485C31.1462 6.56338 31.2463 6.5547 31.3442 6.56955C31.4422 6.5844 31.5352 6.62235 31.6156 6.68025C31.6959 6.73815 31.7614 6.81436 31.8065 6.90256C31.8516 6.99076 31.8751 7.08843 31.875 7.1875V15.1874C31.875 15.3531 31.8092 15.5121 31.6919 15.6293C31.5747 15.7465 31.4158 15.8124 31.25 15.8124C31.0842 15.8124 30.9253 15.7465 30.8081 15.6293C30.6908 15.5121 30.625 15.3531 30.625 15.1874V8.05482L18.75 12.0129V18.9404C18.75 19.0225 18.7339 19.1038 18.7025 19.1797C18.6711 19.2555 18.6251 19.3244 18.567 19.3825C18.509 19.4405 18.4401 19.4866 18.3642 19.5179C18.2884 19.5493 18.2071 19.5655 18.125 19.5654Z" fill="#A9FF35"/>
<path d="M8.13354 15.5664C7.96792 15.5663 7.80908 15.5005 7.69191 15.3835C7.57473 15.2664 7.50879 15.1077 7.50854 14.942L7.5 7.18813C7.49983 7.08426 7.52556 6.98198 7.57488 6.89056C7.62419 6.79914 7.69553 6.72146 7.78243 6.66456C7.86933 6.60766 7.96905 6.57332 8.07256 6.56467C8.17607 6.55602 8.2801 6.57332 8.37524 6.615L18.3752 10.99C18.5261 11.057 18.6444 11.181 18.7042 11.3349C18.764 11.4888 18.7604 11.6601 18.6943 11.8113C18.6281 11.9626 18.5048 12.0816 18.3513 12.1422C18.1977 12.2029 18.0264 12.2003 17.8747 12.135L8.75125 8.14332L8.75857 14.9408C8.75866 15.0229 8.74257 15.1042 8.71124 15.18C8.67991 15.2559 8.63394 15.3248 8.57596 15.3829C8.51798 15.441 8.44913 15.4871 8.37333 15.5186C8.29753 15.5501 8.21628 15.5664 8.1342 15.5664L8.13354 15.5664Z" fill="#A9FF35"/>
<path d="M31.25 7.81259C31.1797 7.81265 31.11 7.80089 31.0437 7.77781L18.7683 3.48093L8.36301 7.76559C8.20972 7.82873 8.03762 7.82838 7.88458 7.76462C7.73155 7.70087 7.61011 7.57893 7.54697 7.42563C7.48384 7.27234 7.48419 7.10024 7.54795 6.9472C7.6117 6.79417 7.73364 6.67273 7.88694 6.60959L18.5119 2.23459C18.6536 2.17633 18.8116 2.17198 18.9563 2.22238L31.4563 6.59738C31.5957 6.64608 31.7133 6.74256 31.7884 6.86973C31.8635 6.9969 31.8911 7.14654 31.8664 7.29213C31.8417 7.43772 31.7662 7.56986 31.6534 7.66513C31.5406 7.76039 31.3976 7.81264 31.25 7.81259Z" fill="#A9FF35"/>
<path d="M21.8749 34.0625C21.731 34.0625 21.5915 34.0128 21.48 33.9218C21.3685 33.8308 21.2918 33.7041 21.2629 33.5632C21.2339 33.4222 21.2546 33.2755 21.3213 33.148C21.388 33.0204 21.4967 32.9198 21.629 32.8632L26.004 30.9882C26.1562 30.9235 26.3279 30.9219 26.4813 30.9836C26.6347 31.0453 26.7575 31.1653 26.8226 31.3173C26.8877 31.4693 26.8898 31.641 26.8286 31.7946C26.7674 31.9482 26.6478 32.0713 26.4959 32.1369L22.1209 34.0118C22.0433 34.0455 21.9596 34.0627 21.8749 34.0625Z" fill="#A9FF35"/>
<path d="M21.8749 31.5625C21.731 31.5625 21.5915 31.5128 21.48 31.4218C21.3685 31.3308 21.2918 31.2041 21.2629 31.0632C21.2339 30.9222 21.2546 30.7755 21.3213 30.648C21.388 30.5204 21.4967 30.4198 21.629 30.3632L26.004 28.4882C26.1562 28.4235 26.3279 28.4219 26.4813 28.4836C26.6347 28.5453 26.7575 28.6653 26.8226 28.8173C26.8877 28.9693 26.8898 29.141 26.8286 29.2946C26.7674 29.4482 26.6478 29.5713 26.4959 29.6369L22.1209 31.5118C22.0433 31.5455 21.9596 31.5627 21.8749 31.5625Z" fill="#A9FF35"/>
<path d="M17.5 32.8125C17.4206 32.8126 17.3418 32.7975 17.2681 32.768L14.1431 31.518C14.027 31.4716 13.9275 31.3916 13.8574 31.2881C13.7874 31.1846 13.7499 31.0625 13.75 30.9375V27.8125C13.75 27.7104 13.775 27.6099 13.8229 27.5196C13.8707 27.4294 13.94 27.3523 14.0245 27.295C14.1091 27.2378 14.2064 27.2021 14.3079 27.1911C14.4094 27.1801 14.5121 27.1942 14.6069 27.2321L17.7319 28.4821C17.8479 28.5285 17.9474 28.6086 18.0175 28.712C18.0875 28.8155 18.125 28.9376 18.125 29.0625V32.1875C18.125 32.3533 18.0592 32.5123 17.9419 32.6295C17.8247 32.7467 17.6658 32.8125 17.5 32.8125ZM15 30.5146L16.875 31.2641V29.4855L15 28.7354V30.5146Z" fill="#A9FF35"/>
<path d="M23.75 18.8203C23.6679 18.8203 23.5866 18.8042 23.5108 18.7728C23.4349 18.7414 23.366 18.6954 23.308 18.6373C23.2499 18.5793 23.2039 18.5104 23.1725 18.4345C23.1411 18.3587 23.125 18.2774 23.125 18.1953V10.0965L12.9834 5.65621C12.9078 5.62356 12.8394 5.57629 12.7821 5.51712C12.7248 5.45794 12.6797 5.38801 12.6496 5.31137C12.6194 5.23473 12.6046 5.15288 12.6062 5.07052C12.6077 4.98816 12.6256 4.90692 12.6586 4.83147C12.6917 4.75603 12.7393 4.68786 12.7988 4.63089C12.8583 4.57392 12.9285 4.52926 13.0053 4.4995C13.0821 4.46974 13.164 4.45545 13.2464 4.45746C13.3287 4.45947 13.4099 4.47774 13.4851 4.51121L24.0009 9.11509C24.1121 9.16385 24.2067 9.24396 24.2732 9.34563C24.3396 9.4473 24.375 9.56613 24.375 9.68758V18.1953C24.3751 18.2774 24.3589 18.3587 24.3275 18.4345C24.2962 18.5104 24.2501 18.5793 24.1921 18.6373C24.134 18.6954 24.0651 18.7414 23.9893 18.7728C23.9134 18.8042 23.8321 18.8203 23.75 18.8203Z" fill="#A9FF35"/>
</svg>
