<svg width="100" height="41" viewBox="0 0 100 41" fill="none" xmlns="http://www.w3.org/2000/svg">
<rect width="100" height="41" rx="4" fill="#A9FF35"/>
<rect x="16" y="19.5" width="14" height="2" rx="1" fill="#1E242E"/>
<rect x="16" y="24.5" width="8" height="2" rx="1" fill="#1E242E"/>
<rect x="16" y="14.5" width="12" height="2" rx="1" fill="#1E242E"/>
<path d="M49.956 26L49.942 16.2H48.794L44.762 23.088L40.674 16.2H39.526V26H40.87V18.902L44.412 24.81H45.056L48.598 18.86L48.612 26H49.956ZM59.4885 22.332C59.4885 20.05 57.9625 18.51 55.8205 18.51C53.6785 18.51 52.0965 20.092 52.0965 22.29C52.0965 24.502 53.6925 26.084 56.0865 26.084C57.3185 26.084 58.3405 25.664 59.0125 24.88L58.2705 24.012C57.7245 24.614 56.9965 24.908 56.1285 24.908C54.6585 24.908 53.6085 24.04 53.4405 22.738H59.4605C59.4745 22.612 59.4885 22.444 59.4885 22.332ZM55.8205 19.644C57.1225 19.644 58.0605 20.526 58.2005 21.772H53.4405C53.5805 20.512 54.5325 19.644 55.8205 19.644ZM61.5735 26H62.9175V22.892H67.1455V26H68.4895V18.58H67.1455V21.73H62.9175V18.58H61.5735V26ZM77.6688 18.51C75.7228 18.51 74.2388 19.756 73.9588 21.618H72.4468V18.58H71.1028V26H72.4468V22.864H73.9448C74.1968 24.768 75.6948 26.084 77.6688 26.084C79.8388 26.084 81.4348 24.502 81.4348 22.29C81.4348 20.064 79.8388 18.51 77.6688 18.51ZM77.6688 24.908C76.2828 24.908 75.2328 23.886 75.2328 22.29C75.2328 20.708 76.2828 19.686 77.6688 19.686C79.0408 19.686 80.1048 20.708 80.1048 22.29C80.1048 23.886 79.0408 24.908 77.6688 24.908Z" fill="#1E242E"/>
</svg>
