<svg width="14" height="15" viewBox="0 0 14 15" fill="none" xmlns="http://www.w3.org/2000/svg">
<g clip-path="url(#clip0_1534_29693)">
<path d="M13.1403 10.3875C13.1044 10.3591 10.5 8.48175 9.78512 8.6165C9.44387 8.67688 9.24875 8.90963 8.85719 9.37556C8.79419 9.45081 8.64281 9.63106 8.52513 9.75925C8.27767 9.67854 8.03629 9.58029 7.80281 9.46525C6.59773 8.87857 5.62406 7.9049 5.03737 6.69981C4.92225 6.46637 4.824 6.22498 4.74337 5.9775C4.872 5.85938 5.05225 5.708 5.12925 5.64325C5.593 5.25387 5.82619 5.05875 5.88656 4.71662C6.01038 4.00787 4.13437 1.3855 4.11469 1.36187C4.02957 1.24028 3.91849 1.13913 3.78948 1.06573C3.66047 0.992338 3.51676 0.948537 3.36875 0.9375C2.60837 0.9375 0.4375 3.75369 0.4375 4.22794C0.4375 4.2555 0.477313 7.05725 3.93225 10.5717C7.44319 14.0227 10.2445 14.0625 10.2721 14.0625C10.7467 14.0625 13.5625 11.8916 13.5625 11.1312C13.5516 10.9838 13.508 10.8405 13.435 10.7119C13.362 10.5833 13.2614 10.4725 13.1403 10.3875Z" fill="#A9FF35"/>
</g>
<defs>
<clipPath id="clip0_1534_29693">
<rect width="14" height="14" fill="white" transform="translate(0 0.5)"/>
</clipPath>
</defs>
</svg>
