<svg width="32" height="32" viewBox="0 0 32 32" fill="none" xmlns="http://www.w3.org/2000/svg">
<path d="M25.9163 18.2092L22.5467 12.5928L25.5707 11.7527C25.8826 11.6661 26.0651 11.3432 25.9785 11.0314C25.8919 10.7196 25.5688 10.537 25.2571 10.6236L21.4981 11.6678C21.4978 11.6679 21.4975 11.6679 21.4973 11.668L16.5859 13.0323V6.58595C16.5859 6.26235 16.3236 6 16 6C15.6764 6 15.4141 6.26235 15.4141 6.58595V13.3578L10.2015 14.8057C10.2012 14.8058 10.2009 14.8058 10.2006 14.8059L6.42928 15.8535C6.11745 15.9401 5.93495 16.2631 6.02151 16.5749C6.09358 16.8342 6.32909 17.0041 6.58573 17.0041C6.63764 17.0041 6.69045 16.9972 6.74287 16.9826L9.09388 16.3295L6.08373 21.3472C6.02913 21.4382 6.00022 21.5424 6.00022 21.6486C6.00022 24.048 7.95228 26 10.3517 26C12.7511 26 14.7031 24.048 14.7031 21.6486C14.7031 21.5424 14.6743 21.4382 14.6196 21.3472L11.25 15.7307L20.3905 13.1917L17.3803 18.2092C17.3257 18.3003 17.2968 18.4045 17.2968 18.5107C17.2968 20.9101 19.2489 22.8621 21.6483 22.8621C22.8106 22.8621 23.9033 22.4095 24.7253 21.5875C25.5472 20.7656 25.9998 19.6729 25.9997 18.5106C25.9998 18.4045 25.9709 18.3002 25.9163 18.2092ZM10.3517 24.8281C8.79865 24.8281 7.50272 23.7087 7.22682 22.2345H13.4765C13.2006 23.7087 11.9047 24.8281 10.3517 24.8281ZM13.0824 21.0626H7.62096L10.3517 16.511L13.0824 21.0626ZM21.6483 13.3731L24.3791 17.9247H18.9175L21.6483 13.3731ZM21.6483 21.6902C20.0953 21.6902 18.7994 20.5708 18.5234 19.0966H24.7732C24.4973 20.5708 23.2014 21.6902 21.6483 21.6902Z" fill="#A9FF35"/>
</svg>
