<svg width="28" height="28" viewBox="0 0 28 28" fill="none" xmlns="http://www.w3.org/2000/svg">
<rect width="28" height="28" rx="14" fill="url(#paint0_linear_2958_29048)"/>
<g clip-path="url(#clip0_2958_29048)">
<path d="M21.9331 15.7673L19.2374 11.2742L21.6566 10.6022C21.9061 10.533 22.0521 10.2746 21.9828 10.0252C21.9135 9.77572 21.6551 9.62965 21.4057 9.69897L18.3985 10.5343C18.3983 10.5343 18.3981 10.5344 18.3978 10.5345L14.4688 11.6258V6.46887C14.4688 6.21 14.2589 6.00012 14 6.00012C13.7411 6.00012 13.5313 6.21 13.5313 6.46887V11.8862L9.36118 13.0446C9.36096 13.0446 9.36074 13.0447 9.36052 13.0447L6.34343 13.8828C6.09396 13.9521 5.94796 14.2104 6.01721 14.4599C6.07486 14.6673 6.26327 14.8033 6.46858 14.8033C6.51011 14.8033 6.55236 14.7977 6.5943 14.7861L8.47511 14.2636L6.06699 18.2777C6.0233 18.3505 6.00018 18.4339 6.00018 18.5188C6.00018 20.4383 7.56183 21.9999 9.48133 21.9999C11.4009 21.9999 12.9625 20.4383 12.9625 18.5188C12.9625 18.4339 12.9394 18.3505 12.8957 18.2777L10.2 13.7845L17.5124 11.7534L15.1043 15.7673C15.0606 15.8402 15.0375 15.9236 15.0375 16.0085C15.0375 17.928 16.5991 19.4896 18.5186 19.4896C19.4485 19.4896 20.3227 19.1275 20.9802 18.47C21.6378 17.8124 21.9999 16.9383 21.9998 16.0084C21.9999 15.9235 21.9768 15.8402 21.9331 15.7673ZM9.48133 21.0624C8.23893 21.0624 7.20218 20.1668 6.98146 18.9875H11.9812C11.7605 20.1668 10.7238 21.0624 9.48133 21.0624ZM11.666 18.05H7.29677L9.48133 14.4088L11.666 18.05ZM18.5186 11.8985L20.7033 15.5397H16.3341L18.5186 11.8985ZM18.5187 18.5521C17.2763 18.5521 16.2395 17.6566 16.0188 16.4772H21.0186C20.7979 17.6566 19.7611 18.5521 18.5187 18.5521Z" fill="#1E242E"/>
</g>
<defs>
<linearGradient id="paint0_linear_2958_29048" x1="28" y1="-3.65562e-06" x2="-2.79461" y2="3.51472" gradientUnits="userSpaceOnUse">
<stop stop-color="#A9FF35"/>
<stop offset="1" stop-color="#BFFF3A"/>
</linearGradient>
<clipPath id="clip0_2958_29048">
<rect width="16" height="16" fill="white" transform="translate(6 6)"/>
</clipPath>
</defs>
</svg>
