<svg width="21" height="20" viewBox="0 0 21 20" fill="none" xmlns="http://www.w3.org/2000/svg">
<path d="M20.4163 12.2092L17.0467 6.59276L20.0707 5.75275C20.3826 5.66614 20.5651 5.34317 20.4785 5.03137C20.3919 4.71957 20.0688 4.53698 19.7571 4.62363L15.9981 5.66778C15.9978 5.66786 15.9975 5.66794 15.9973 5.66802L11.0859 7.03226V0.585947C11.0859 0.262348 10.8236 0 10.5 0C10.1764 0 9.91406 0.262348 9.91406 0.585947V7.35777L4.70146 8.80568C4.70119 8.80576 4.70091 8.80584 4.70064 8.80588L0.92928 9.85347C0.617445 9.94008 0.434946 10.2631 0.521508 10.5749C0.593578 10.8342 0.829085 11.0041 1.08573 11.0041C1.13764 11.0041 1.19045 10.9972 1.24287 10.9826L3.59388 10.3295L0.583734 15.3472C0.529125 15.4382 0.500219 15.5424 0.500219 15.6486C0.500219 18.048 2.45228 20 4.85165 20C7.2511 20 9.20313 18.048 9.20313 15.6486C9.20313 15.5424 9.17426 15.4382 9.11961 15.3472L5.75001 9.73066L14.8905 7.19168L11.8803 12.2092C11.8257 12.3003 11.7968 12.4045 11.7968 12.5107C11.7968 14.9101 13.7489 16.8621 16.1483 16.8621C17.3106 16.8621 18.4033 16.4095 19.2253 15.5875C20.0472 14.7656 20.4998 13.6729 20.4997 12.5106C20.4998 12.4045 20.4709 12.3002 20.4163 12.2092ZM4.85165 18.8281C3.29865 18.8281 2.00272 17.7087 1.72682 16.2345H7.97649C7.70063 17.7087 6.4047 18.8281 4.85165 18.8281ZM7.58243 15.0626H2.12096L4.85165 10.511L7.58243 15.0626ZM16.1483 7.37308L18.8791 11.9247H13.4175L16.1483 7.37308ZM16.1483 15.6902C14.5953 15.6902 13.2994 14.5708 13.0234 13.0966H19.2732C18.9973 14.5708 17.7014 15.6902 16.1483 15.6902Z" fill="#A9FF35"/>
</svg>
