<svg width="16" height="17" viewBox="0 0 16 17" fill="none" xmlns="http://www.w3.org/2000/svg">
<g clip-path="url(#clip0_1534_29650)">
<path d="M15.933 10.2675L13.2374 5.77437L15.6566 5.10237C15.9061 5.03309 16.0521 4.77471 15.9828 4.52528C15.9135 4.27584 15.6551 4.12978 15.4057 4.19909L12.3985 5.0344C12.3982 5.03446 12.398 5.03453 12.3978 5.03459L8.46874 6.12596V0.968994C8.46874 0.710119 8.25887 0.500244 7.99999 0.500244C7.74112 0.500244 7.53124 0.710119 7.53124 0.968994V6.38637L3.36115 7.54468C3.36093 7.54474 3.36071 7.54481 3.36049 7.54484L0.343395 8.3829C0.0939259 8.45218 -0.0520741 8.71056 0.0171759 8.96C0.0748322 9.16746 0.263238 9.3034 0.468551 9.3034C0.510082 9.3034 0.552332 9.29784 0.59427 9.28618L2.47508 8.76375L0.0669572 12.7778C0.0232696 12.8506 0.000144634 12.934 0.000144634 13.0189C0.000144634 14.9384 1.5618 16.5 3.4813 16.5C5.40087 16.5 6.96249 14.9384 6.96249 13.0189C6.96249 12.934 6.9394 12.8506 6.89568 12.7778L4.19999 8.28465L11.5124 6.25349L9.10427 10.2675C9.06059 10.3403 9.03746 10.4237 9.03746 10.5086C9.03746 12.4281 10.5991 13.9897 12.5186 13.9897C13.4485 13.9897 14.3226 13.6276 14.9802 12.9701C15.6377 12.3126 15.9998 11.4384 15.9998 10.5086C15.9998 10.4237 15.9767 10.3403 15.933 10.2675ZM3.4813 15.5625C2.2389 15.5625 1.20215 14.667 0.981426 13.4877H5.98118C5.76049 14.667 4.72374 15.5625 3.4813 15.5625ZM5.66593 12.5502H1.29674L3.4813 8.9089L5.66593 12.5502ZM12.5186 6.39862L14.7033 10.0398H10.334L12.5186 6.39862ZM12.5187 13.0522C11.2763 13.0522 10.2395 12.1567 10.0187 10.9774H15.0186C14.7978 12.1567 13.7611 13.0522 12.5187 13.0522Z" fill="#A9FF35"/>
</g>
<defs>
<clipPath id="clip0_1534_29650">
<rect width="16" height="16" fill="white" transform="translate(0 0.5)"/>
</clipPath>
</defs>
</svg>
