<svg width="48" height="49" viewBox="0 0 48 49" fill="none" xmlns="http://www.w3.org/2000/svg">
<path d="M35.8995 27.151L31.856 20.4114L35.4848 19.4034C35.859 19.2995 36.078 18.9119 35.9741 18.5378C35.8702 18.1636 35.4825 17.9445 35.1085 18.0485L30.5977 19.3014C30.5973 19.3015 30.597 19.3016 30.5967 19.3017L24.7031 20.9388V13.2034C24.7031 12.8151 24.3883 12.5002 24 12.5002C23.6117 12.5002 23.2969 12.8151 23.2969 13.2034V21.3294L17.0417 23.0669C17.0414 23.0669 17.0411 23.067 17.0408 23.0671L12.5151 24.3242C12.1409 24.4281 11.9219 24.8157 12.0258 25.1898C12.1123 25.501 12.3949 25.7049 12.7029 25.7049C12.7652 25.7049 12.8285 25.6966 12.8914 25.6791L15.7127 24.8954L12.1005 30.9165C12.035 31.0257 12.0003 31.1508 12.0003 31.2782C12.0003 34.1574 14.3427 36.4998 17.222 36.4998C20.1013 36.4998 22.4437 34.1574 22.4437 31.2782C22.4437 31.1508 22.4091 31.0257 22.3435 30.9165L18.3 24.1768L29.2686 21.1301L25.6564 27.151C25.5909 27.2603 25.5562 27.3853 25.5562 27.5127C25.5562 30.392 27.8986 32.7344 30.7779 32.7344C32.1726 32.7344 33.4839 32.1912 34.4703 31.2049C35.4566 30.2186 35.9997 28.9074 35.9996 27.5126C35.9997 27.3853 35.9651 27.2602 35.8995 27.151ZM17.222 35.0936C15.3584 35.0936 13.8033 33.7502 13.4722 31.9813H20.9718C20.6407 33.7502 19.0856 35.0936 17.222 35.0936ZM20.4989 30.575H13.9451L17.222 25.1132L20.4989 30.575ZM30.7779 21.3478L34.0549 26.8096H27.501L30.7779 21.3478ZM30.778 31.3282C28.9144 31.3282 27.3592 29.9848 27.0281 28.2159H34.5278C34.1967 29.9848 32.6416 31.3282 30.778 31.3282Z" fill="#202732"/>
</svg>
