<svg width="48" height="48" viewBox="0 0 48 48" fill="none" xmlns="http://www.w3.org/2000/svg">
<path d="M35.8995 26.651L31.856 19.9114L35.4848 18.9034C35.859 18.7995 36.078 18.4119 35.9741 18.0378C35.8702 17.6636 35.4825 17.4445 35.1085 17.5485L30.5977 18.8014C30.5973 18.8015 30.597 18.8016 30.5967 18.8017L24.7031 20.4388V12.7034C24.7031 12.3151 24.3883 12.0002 24 12.0002C23.6117 12.0002 23.2969 12.3151 23.2969 12.7034V20.8294L17.0417 22.5669C17.0414 22.5669 17.0411 22.567 17.0408 22.5671L12.5151 23.8242C12.1409 23.9281 11.9219 24.3157 12.0258 24.6898C12.1123 25.001 12.3949 25.2049 12.7029 25.2049C12.7652 25.2049 12.8285 25.1966 12.8914 25.1791L15.7127 24.3954L12.1005 30.4165C12.035 30.5257 12.0003 30.6508 12.0003 30.7782C12.0003 33.6574 14.3427 35.9998 17.222 35.9998C20.1013 35.9998 22.4437 33.6574 22.4437 30.7782C22.4437 30.6508 22.4091 30.5257 22.3435 30.4165L18.3 23.6768L29.2686 20.6301L25.6564 26.651C25.5909 26.7603 25.5562 26.8853 25.5562 27.0127C25.5562 29.892 27.8986 32.2344 30.7779 32.2344C32.1726 32.2344 33.4839 31.6912 34.4703 30.7049C35.4566 29.7186 35.9997 28.4074 35.9996 27.0126C35.9997 26.8853 35.9651 26.7602 35.8995 26.651ZM17.222 34.5936C15.3584 34.5936 13.8033 33.2502 13.4722 31.4813H20.9718C20.6407 33.2502 19.0856 34.5936 17.222 34.5936ZM20.4989 30.075H13.9451L17.222 24.6132L20.4989 30.075ZM30.7779 20.8478L34.0549 26.3096H27.501L30.7779 20.8478ZM30.778 30.8282C28.9144 30.8282 27.3592 29.4848 27.0281 27.7159H34.5278C34.1967 29.4848 32.6416 30.8282 30.778 30.8282Z" fill="#A9FF35"/>
</svg>
