<svg width="20" height="20" viewBox="0 0 20 20" fill="none" xmlns="http://www.w3.org/2000/svg">
<path d="M19.9163 12.2092L16.5467 6.59276L19.5707 5.75275C19.8826 5.66614 20.0651 5.34317 19.9785 5.03137C19.8919 4.71957 19.5688 4.53698 19.2571 4.62363L15.4981 5.66778C15.4978 5.66786 15.4975 5.66794 15.4973 5.66802L10.5859 7.03226V0.585947C10.5859 0.262348 10.3236 0 10 0C9.67641 0 9.41406 0.262348 9.41406 0.585947V7.35777L4.20146 8.80568C4.20119 8.80576 4.20091 8.80584 4.20064 8.80588L0.42928 9.85347C0.117445 9.94008 -0.0650543 10.2631 0.021508 10.5749C0.0935781 10.8342 0.329085 11.0041 0.585725 11.0041C0.637639 11.0041 0.690452 10.9972 0.742873 10.9826L3.09388 10.3295L0.0837344 15.3472C0.0291251 15.4382 0.000218939 15.5424 0.000218939 15.6486C0.000218939 18.048 1.95228 20 4.35165 20C6.7511 20 8.70313 18.048 8.70313 15.6486C8.70313 15.5424 8.67426 15.4382 8.61961 15.3472L5.25001 9.73066L14.3905 7.19168L11.3803 12.2092C11.3257 12.3003 11.2968 12.4045 11.2968 12.5107C11.2968 14.9101 13.2489 16.8621 15.6483 16.8621C16.8106 16.8621 17.9033 16.4095 18.7253 15.5875C19.5472 14.7656 19.9998 13.6729 19.9997 12.5106C19.9998 12.4045 19.9709 12.3002 19.9163 12.2092ZM4.35165 18.8281C2.79865 18.8281 1.50272 17.7087 1.22682 16.2345H7.47649C7.20063 17.7087 5.9047 18.8281 4.35165 18.8281ZM7.08243 15.0626H1.62096L4.35165 10.511L7.08243 15.0626ZM15.6483 7.37308L18.3791 11.9247H12.9175L15.6483 7.37308ZM15.6483 15.6902C14.0953 15.6902 12.7994 14.5708 12.5234 13.0966H18.7732C18.4973 14.5708 17.2014 15.6902 15.6483 15.6902Z" fill="#1E242E"/>
</svg>
