<svg width="105" height="48" viewBox="0 0 105 48" fill="none" xmlns="http://www.w3.org/2000/svg">
<path fill-rule="evenodd" clip-rule="evenodd" d="M96.5757 0H0V1C1.75724 1.00003 3.18175 2.34317 3.18175 4C3.18175 5.65683 1.75724 6.99997 0 7V11C1.75724 11 3.18175 12.3432 3.18175 14C3.18175 15.6568 1.75724 17 0 17V21C1.75724 21 3.18175 22.3432 3.18175 24C3.18175 25.6568 1.75724 27 0 27V31C1.75724 31 3.18175 32.3432 3.18175 34C3.18175 35.6568 1.75724 37 0 37V41C1.75724 41 3.18175 42.3432 3.18175 44C3.18175 45.6568 1.75724 47 0 47V48H96.5757C96.5757 43.6008 100.342 40.0309 105 40.0002V7.9998C100.342 7.96911 96.5757 4.39924 96.5757 0Z" fill="url(#paint0_linear_2248_37876)"/>
<defs>
<linearGradient id="paint0_linear_2248_37876" x1="-3.96045e-07" y1="48" x2="36.2998" y2="-31.4058" gradientUnits="userSpaceOnUse">
<stop stop-color="#2B3547"/>
<stop offset="1" stop-color="#1E242E"/>
</linearGradient>
</defs>
</svg>
