<svg width="135" height="48" viewBox="0 0 135 48" fill="none" xmlns="http://www.w3.org/2000/svg">
<path fill-rule="evenodd" clip-rule="evenodd" d="M0 8C4.41828 8 8 4.41828 8 0H135V1C133.343 1 132 2.34315 132 4C132 5.65685 133.343 7 135 7V11C133.343 11 132 12.3431 132 14C132 15.6569 133.343 17 135 17V21C133.343 21 132 22.3431 132 24C132 25.6569 133.343 27 135 27V31C133.343 31 132 32.3431 132 34C132 35.6569 133.343 37 135 37V41C133.343 41 132 42.3431 132 44C132 45.6569 133.343 47 135 47V48H8C8 43.5817 4.41828 40 0 40V8Z" fill="#F1F7FF"/>
</svg>
