 <svg width="213" height="64" viewBox="0 0 213 64" fill="none" xmlns="http://www.w3.org/2000/svg">
           
           
            <path fill-rule="evenodd" clip-rule="evenodd" d="M12 0C12 6.62742 6.62742 12 0 12V52C6.62742 52 12 57.3726 12 64H213V60C211.343 60 210 58.6569 210 57C210 55.3431 211.343 54 213 54V50C211.343 50 210 48.6569 210 47C210 45.3431 211.343 44 213 44V40C211.343 40 210 38.6569 210 37C210 35.3431 211.343 34 213 34V30C211.343 30 210 28.6569 210 27C210 25.3431 211.343 24 213 24V20C211.343 20 210 18.6569 210 17C210 15.3431 211.343 14 213 14V10C211.343 10 210 8.65685 210 7C210 5.34315 211.343 4 213 4V0H12Z" fill="#F1F7FF"/>
           
     
        </svg>