<svg width="24" height="24" viewBox="0 0 24 24" fill="none" xmlns="http://www.w3.org/2000/svg">
<path d="M4.75448 20.9985C4.57013 20.9397 4.37649 20.9027 4.20388 20.8185C3.44107 20.4474 3.03375 19.8151 3.00979 18.9415C2.99072 18.248 3.00539 17.5539 3.00539 16.8598C3.00539 12.9543 3.00441 9.04929 3.00588 5.14379C3.00588 4.07147 3.65573 3.23592 4.6425 3.03768C4.79017 3.00776 4.9442 3.00219 5.0953 3.00168C7.69472 2.99965 10.2937 2.99965 12.8931 3.00067C13.3459 3.00067 13.6241 3.23288 13.6588 3.63139C13.6926 4.01773 13.4183 4.35235 13.0452 4.3777C12.9728 4.38277 12.8994 4.38125 12.8266 4.38125C10.2516 4.38125 7.67663 4.38125 5.10165 4.38125C4.71829 4.38125 4.45277 4.55617 4.37111 4.87761C4.3408 4.99727 4.34031 5.12706 4.34031 5.2528C4.33884 8.06062 4.33933 10.8679 4.33933 13.6757C4.33933 15.3666 4.33933 17.0575 4.33933 18.7484C4.33933 18.8427 4.33933 18.938 4.35155 19.0318C4.38823 19.3243 4.62294 19.5647 4.90557 19.6007C4.98968 19.6113 5.07525 19.6123 5.15984 19.6123C9.05263 19.6128 12.9454 19.6128 16.8382 19.6123C16.9233 19.6123 17.0088 19.6113 17.093 19.6012C17.3898 19.5647 17.6284 19.3091 17.6553 18.9988C17.6631 18.9111 17.6616 18.8224 17.6616 18.7342C17.6616 16.5388 17.6611 14.343 17.6641 12.1476C17.6641 12.0168 17.6758 11.8799 17.714 11.7572C17.8025 11.4753 18.0807 11.2938 18.3653 11.3095C18.6533 11.3252 18.9012 11.5311 18.9687 11.8241C18.9926 11.9271 18.9985 12.0361 18.9985 12.1425C19 14.3632 19.0005 16.584 18.9995 18.8052C18.9995 19.951 18.3814 20.7374 17.3003 20.9726C17.2837 20.9762 17.2695 20.9904 17.2538 21H4.75448V20.9985Z" fill="#1E242E"/>
<path d="M21 4.90974C20.9626 5.07111 20.9327 5.23499 20.8869 5.39336C20.7589 5.83602 20.523 6.20573 20.2184 6.53198C17.4726 9.47069 14.7301 12.4124 11.9816 15.3476C11.8629 15.474 11.7064 15.5829 11.549 15.6404C10.3436 16.0816 9.13352 16.5067 7.92533 16.9394C7.6936 17.0223 7.46934 17.0363 7.26097 16.8774C7.01288 16.6881 6.93907 16.3878 7.05073 16.0271C7.36282 15.0204 7.70948 14.0242 7.97953 13.0049C8.19257 12.2001 8.59063 11.5741 9.14473 10.99C11.663 8.33558 14.1531 5.65016 16.6452 2.96775C17.1007 2.47713 17.6025 2.10892 18.2561 2.02098C18.2659 2.01948 18.2748 2.00749 18.2842 2C18.4696 2 18.6556 2 18.8411 2C18.8672 2.01099 18.8924 2.02748 18.9195 2.03297C19.8969 2.21733 20.5477 2.81587 20.8799 3.81309C20.9337 3.97447 20.9608 4.14633 21 4.3132V4.91024V4.90974ZM8.63875 15.2372C8.69575 15.2212 8.72331 15.2157 8.74948 15.2062C9.50728 14.9349 10.266 14.6652 11.022 14.3884C11.099 14.3599 11.1705 14.2944 11.2299 14.231C13.9149 11.3572 16.598 8.48146 19.2807 5.6052C19.3503 5.53076 19.419 5.45382 19.4779 5.36938C19.7605 4.9642 19.8058 4.52254 19.6012 4.07189C19.234 3.26402 18.2986 3.13312 17.6763 3.7991C14.9661 6.69885 12.2586 9.60109 9.55073 12.5033C9.50681 12.5503 9.46009 12.6053 9.44094 12.6662C9.1737 13.5126 8.91113 14.3604 8.63781 15.2377L8.63875 15.2372Z" fill="#1E242E"/>
</svg>
