<svg width="31" height="22" viewBox="0 0 31 22" fill="none" xmlns="http://www.w3.org/2000/svg">
<path d="M29.4809 10.8788H16.22C15.9875 10.8788 15.7645 10.9705 15.6 11.1338C15.4356 11.297 15.3432 11.5183 15.3432 11.7492C15.3432 11.98 15.4356 12.2013 15.6 12.3646C15.7645 12.5278 15.9875 12.6195 16.22 12.6195H21.0422C21.2747 12.6195 21.4977 12.7112 21.6621 12.8744C21.8265 13.0376 21.9189 13.2589 21.9189 13.4898V14.3601C21.9189 14.5909 21.8265 14.8123 21.6621 14.9755C21.4977 15.1387 21.2747 15.2304 21.0422 15.2304H10.9595C10.3781 15.2304 9.82062 15.0011 9.40956 14.5931C8.9985 14.1851 8.76757 13.6317 8.76757 13.0546V8.70308C8.76757 8.12603 8.9985 7.57262 9.40956 7.16459C9.82062 6.75655 10.3781 6.52732 10.9595 6.52732H20.7199C20.9722 6.52777 21.2166 6.6146 21.4119 6.77315C21.6071 6.9317 21.7413 7.15227 21.7918 7.39762C21.8203 7.54558 21.8444 7.69353 21.8641 7.84366C21.8915 8.08236 22.0061 8.30281 22.1863 8.46321C22.3665 8.62362 22.5997 8.71284 22.8417 8.71396H29.7001C29.9617 8.71396 30.2126 8.61081 30.3976 8.42719C30.5825 8.24358 30.6865 7.99454 30.6865 7.73487V6.96247C30.6893 5.26587 30.0654 3.6271 28.933 2.35638C28.739 2.13881 28.5318 1.93318 28.3127 1.74064C27.0325 0.616476 25.3816 -0.00280359 23.6724 2.49052e-05H7.01406C5.30488 -0.00280359 3.65397 0.616476 2.37383 1.74064C2.15465 1.93318 1.94749 2.13881 1.75352 2.35638C0.621029 3.6271 -0.00283974 5.26587 9.71794e-06 6.96247V14.7952C-0.00283974 16.4918 0.621029 18.1306 1.75352 19.4013C1.94749 19.6189 2.15465 19.8245 2.37383 20.0171C3.65397 21.1412 5.30488 21.7605 7.01406 21.7577H29.4809C29.8007 21.7577 30.1073 21.6316 30.3334 21.4072C30.5595 21.1828 30.6865 20.8784 30.6865 20.561V12.0755C30.6865 11.7581 30.5595 11.4538 30.3334 11.2293C30.1073 11.0049 29.8007 10.8788 29.4809 10.8788ZM23.6724 1.74064C24.8574 1.74047 26.0077 2.13742 26.937 2.86718C27.8663 3.59694 28.5201 4.61676 28.7927 5.76145C28.8258 5.90461 28.8262 6.05333 28.7937 6.19663C28.7612 6.33994 28.6967 6.47418 28.605 6.58945C28.5133 6.70472 28.3967 6.79808 28.2637 6.86264C28.1308 6.9272 27.985 6.96132 27.837 6.96247H23.4949C23.2366 5.70027 22.6982 4.51106 21.9189 3.48125L21.9036 3.46167C21.7802 3.30439 21.7038 3.11594 21.6829 2.91771C21.662 2.71947 21.6975 2.51939 21.7853 2.34018C21.8732 2.16096 22.0099 2.00979 22.18 1.90381C22.3501 1.79784 22.5466 1.74131 22.7474 1.74064H23.6724ZM10.9595 4.78671C9.91307 4.78671 8.90955 5.19932 8.16964 5.93379C7.42973 6.66825 7.01406 7.6644 7.01406 8.70308V13.0546C7.01406 14.0933 7.42973 15.0894 8.16964 15.8239C8.90955 16.5584 9.91307 16.971 10.9595 16.971H22.4669C22.7866 16.971 23.0932 16.8449 23.3193 16.6205C23.5454 16.3961 23.6724 16.0917 23.6724 15.7743V13.5986C23.6724 13.3389 23.7763 13.0898 23.9613 12.9062C24.1463 12.7226 24.3972 12.6195 24.6588 12.6195H27.9466C28.2082 12.6195 28.4591 12.7226 28.6441 12.9062C28.829 13.0898 28.933 13.3389 28.933 13.5986V19.038C28.9332 19.1666 28.9079 19.2941 28.8585 19.413C28.809 19.5319 28.7364 19.64 28.6447 19.7309C28.5531 19.8219 28.4442 19.894 28.3244 19.9431C28.2046 19.9922 28.0762 20.0173 27.9466 20.0171H7.01406C5.61888 20.0171 4.28084 19.4669 3.2943 18.4876C2.30775 17.5083 1.75352 16.1801 1.75352 14.7952V6.96247C1.75352 5.57755 2.30775 4.24936 3.2943 3.27008C4.28084 2.29079 5.61888 1.74064 7.01406 1.74064H14.9202C15.0605 1.74064 15.203 1.74064 15.3432 1.75369C16.9421 1.8523 18.4582 2.49376 19.6371 3.57045C19.7422 3.66483 19.8161 3.78851 19.8492 3.92528C19.8823 4.06205 19.873 4.20555 19.8225 4.33699C19.7721 4.46843 19.6828 4.58168 19.5664 4.66192C19.4501 4.74217 19.312 4.78566 19.1703 4.78671H10.9595Z" fill="#A9FF35"/>
</svg>
