<svg width="21" height="18" viewBox="0 0 21 18" fill="none" xmlns="http://www.w3.org/2000/svg">
<path d="M10.5 18C10.2153 18 9.94077 17.8957 9.72684 17.7061C8.91888 16.9914 8.13992 16.3198 7.45267 15.7274L7.44916 15.7243C5.43423 13.9873 3.69427 12.4873 2.48364 11.0096C1.13034 9.35765 0.5 7.79138 0.5 6.08032C0.5 4.41788 1.06351 2.88418 2.08661 1.76153C3.12192 0.625613 4.54251 0 6.08716 0C7.24164 0 8.29892 0.369224 9.22955 1.09733C9.69922 1.46486 10.1249 1.91466 10.5 2.43932C10.8752 1.91466 11.3008 1.46486 11.7706 1.09733C12.7012 0.369224 13.7585 0 14.913 0C16.4575 0 17.8782 0.625613 18.9135 1.76153C19.9366 2.88418 20.5 4.41788 20.5 6.08032C20.5 7.79138 19.8698 9.35765 18.5165 11.0094C17.3059 12.4873 15.5661 13.9872 13.5515 15.724C12.863 16.3173 12.0828 16.99 11.273 17.7064C11.0592 17.8957 10.7846 18 10.5 18ZM6.08716 1.18516C4.87363 1.18516 3.75882 1.67509 2.94781 2.56481C2.12476 3.46796 1.67142 4.71641 1.67142 6.08032C1.67142 7.5194 2.20013 8.80644 3.38559 10.2534C4.53137 11.652 6.23563 13.1212 8.20889 14.8224L8.21255 14.8255C8.9024 15.4202 9.68442 16.0944 10.4983 16.8144C11.3171 16.0931 12.1003 15.4177 12.7916 14.8221C14.7647 13.1209 16.4688 11.652 17.6146 10.2534C18.7999 8.80644 19.3286 7.5194 19.3286 6.08032C19.3286 4.71641 18.8752 3.46796 18.0522 2.56481C17.2413 1.67509 16.1264 1.18516 14.913 1.18516C14.024 1.18516 13.2078 1.47103 12.4872 2.03475C11.8449 2.53734 11.3975 3.17268 11.1352 3.61723C11.0003 3.84583 10.7629 3.98228 10.5 3.98228C10.2371 3.98228 9.99966 3.84583 9.86478 3.61723C9.60263 3.17268 9.15524 2.53734 8.51285 2.03475C7.79218 1.47103 6.97598 1.18516 6.08716 1.18516Z" fill="#202732"/>
</svg>
