<svg width="28" height="28" viewBox="0 0 28 28" fill="none" xmlns="http://www.w3.org/2000/svg">
<rect width="28" height="28" rx="14" fill="url(#paint0_linear_2958_29125)"/>
<g clip-path="url(#clip0_2958_29125)">
<path d="M14 21.1099C13.7722 21.1099 13.5526 21.0273 13.3815 20.8774C12.7351 20.3123 12.1119 19.7811 11.5621 19.3126L11.5593 19.3102C9.94739 17.9365 8.55542 16.7502 7.58691 15.5817C6.50427 14.2753 6 13.0366 6 11.6835C6 10.3688 6.45081 9.15588 7.26929 8.26807C8.09753 7.36975 9.23401 6.875 10.4697 6.875C11.3933 6.875 12.2391 7.16699 12.9836 7.7428C13.3594 8.03345 13.7 8.38916 14 8.80408C14.3002 8.38916 14.6406 8.03345 15.0165 7.7428C15.761 7.16699 16.6068 6.875 17.5304 6.875C18.766 6.875 19.9026 7.36975 20.7308 8.26807C21.5493 9.15588 22 10.3688 22 11.6835C22 13.0366 21.4958 14.2753 20.4132 15.5815C19.4447 16.7502 18.0529 17.9364 16.4412 19.3099C15.8904 19.7792 15.2662 20.3112 14.6184 20.8777C14.4474 21.0273 14.2277 21.1099 14 21.1099ZM10.4697 7.81226C9.4989 7.81226 8.60706 8.19971 7.95825 8.90332C7.2998 9.61755 6.93713 10.6049 6.93713 11.6835C6.93713 12.8215 7.36011 13.8394 8.30847 14.9836C9.2251 16.0897 10.5885 17.2516 12.1671 18.5969L12.17 18.5994C12.7219 19.0697 13.3475 19.6029 13.9987 20.1722C14.6537 19.6018 15.2803 19.0677 15.8333 18.5967C17.4117 17.2513 18.775 16.0897 19.6917 14.9836C20.6399 13.8394 21.0629 12.8215 21.0629 11.6835C21.0629 10.6049 20.7002 9.61755 20.0417 8.90332C19.3931 8.19971 18.5011 7.81226 17.5304 7.81226C16.8192 7.81226 16.1663 8.03833 15.5897 8.48413C15.0759 8.88159 14.718 9.38403 14.5082 9.7356C14.4003 9.91638 14.2103 10.0243 14 10.0243C13.7897 10.0243 13.5997 9.91638 13.4918 9.7356C13.2821 9.38403 12.9242 8.88159 12.4103 8.48413C11.8337 8.03833 11.1808 7.81226 10.4697 7.81226Z" fill="#1E242E"/>
</g>
<defs>
<linearGradient id="paint0_linear_2958_29125" x1="28" y1="-3.65562e-06" x2="-2.79461" y2="3.51472" gradientUnits="userSpaceOnUse">
<stop stop-color="#A9FF35"/>
<stop offset="1" stop-color="#BFFF3A"/>
</linearGradient>
<clipPath id="clip0_2958_29125">
<rect width="16" height="16" fill="white" transform="translate(6 6)"/>
</clipPath>
</defs>
</svg>
