<svg width="15" height="16" viewBox="0 0 15 16" fill="none" xmlns="http://www.w3.org/2000/svg">
<path d="M4.37378 0.5C1.9619 0.5 0 2.46372 0 4.87622V11.1262C0 13.5381 1.96372 15.5 4.37622 15.5H10.6262C13.0381 15.5 15 13.5363 15 11.1238V4.87378C15 2.4619 13.0363 0.5 10.6238 0.5H4.37378ZM11.875 3C12.22 3 12.5 3.28 12.5 3.625C12.5 3.97 12.22 4.25 11.875 4.25C11.53 4.25 11.25 3.97 11.25 3.625C11.25 3.28 11.53 3 11.875 3ZM7.5 4.25C9.56812 4.25 11.25 5.93188 11.25 8C11.25 10.0681 9.56812 11.75 7.5 11.75C5.43188 11.75 3.75 10.0681 3.75 8C3.75 5.93188 5.43188 4.25 7.5 4.25ZM7.5 5.5C6.83696 5.5 6.20107 5.76339 5.73223 6.23223C5.26339 6.70107 5 7.33696 5 8C5 8.66304 5.26339 9.29893 5.73223 9.76777C6.20107 10.2366 6.83696 10.5 7.5 10.5C8.16304 10.5 8.79893 10.2366 9.26777 9.76777C9.73661 9.29893 10 8.66304 10 8C10 7.33696 9.73661 6.70107 9.26777 6.23223C8.79893 5.76339 8.16304 5.5 7.5 5.5Z" fill="white"/>
</svg>
