<svg width="40" height="40" viewBox="0 0 40 40" fill="none" xmlns="http://www.w3.org/2000/svg">
<path d="M38.6712 13.0872L22.7262 5.29793C21.3517 4.61065 19.0149 4.61065 17.6403 5.29793L1.32875 13.0872C0.183276 13.637 0 14.4159 0 14.8283C0 15.2407 0.183276 15.9738 1.32875 16.5694L2.6575 17.2109V24.5419C1.83276 24.8627 1.23711 25.6874 1.23711 26.6038C1.23711 27.5202 1.83276 28.3449 2.61168 28.6656L0.549828 35.2178H6.32302L4.26117 28.6656C5.08591 28.3449 5.63574 27.5202 5.63574 26.6038C5.63574 25.6416 5.04009 24.8627 4.21535 24.5419V17.9898L6.64376 19.1811V28.7114C6.64376 28.8489 6.68958 28.9864 6.78121 29.1238C7.01031 29.3987 11.2715 35.2178 19.9771 35.2178C28.6827 35.2178 32.9439 29.3529 33.1271 29.1238C33.2188 28.9864 33.2646 28.8489 33.2646 28.7114V19.2269L38.6712 16.5694C39.8167 16.0196 40 15.2407 40 14.8283C39.9542 14.4159 39.8167 13.637 38.6712 13.0872ZM31.7984 28.4824C31.0653 29.3987 27.1249 33.7974 19.9771 33.7974C12.8293 33.7974 8.88889 29.3987 8.15578 28.4824V19.8226L17.6403 24.3586C18.3276 24.6794 19.244 24.8627 20.1604 24.8627C21.1226 24.8627 22.0389 24.6794 22.7262 24.3128L31.7984 19.8684V28.4824ZM38.0298 15.2865L32.5315 17.9898C32.3024 17.9898 32.1191 18.0814 32.0275 18.2647L22.0848 23.0757C21.1226 23.5797 19.244 23.5797 18.236 23.0757L6.00229 17.2109L20.0687 15.5614C20.4811 15.5156 20.756 15.149 20.7102 14.7825C20.6644 14.3701 20.2978 14.0952 19.9313 14.141L3.6197 16.0654L1.97022 15.2865C1.55785 15.1032 1.46621 14.8741 1.46621 14.8741C1.46621 14.8283 1.55785 14.645 1.97022 14.4617L18.2818 6.62669C18.7858 6.39759 19.4731 6.26013 20.1604 6.26013C20.8935 6.26013 21.6266 6.39759 22.0848 6.62669L38.0298 14.4159C38.4422 14.5992 38.5338 14.7825 38.5338 14.8741C38.5338 14.8741 38.3963 15.1032 38.0298 15.2865Z" fill="#A9FF35"/>
</svg>
