<svg width="48" height="48" viewBox="0 0 48 48" fill="none" xmlns="http://www.w3.org/2000/svg">
<path d="M24 34.5C23.6583 34.5 23.3289 34.3783 23.0722 34.1571C22.1027 33.3233 21.1679 32.5398 20.3432 31.8486L20.339 31.845C17.9211 29.8185 15.8331 28.0685 14.3804 26.3445C12.7564 24.4173 12 22.5899 12 20.5937C12 18.6542 12.6762 16.8649 13.9039 15.5551C15.1463 14.2299 16.851 13.5 18.7046 13.5C20.09 13.5 21.3587 13.9308 22.4755 14.7802C23.0391 15.209 23.5499 15.7338 24 16.3459C24.4503 15.7338 24.9609 15.209 25.5247 14.7802C26.6415 13.9308 27.9102 13.5 29.2956 13.5C31.149 13.5 32.8539 14.2299 34.0963 15.5551C35.324 16.8649 36 18.6542 36 20.5937C36 22.5899 35.2438 24.4173 33.6198 26.3443C32.1671 28.0685 30.0793 29.8183 27.6617 31.8447C26.8356 32.5369 25.8994 33.3217 24.9276 34.1575C24.6711 34.3783 24.3415 34.5 24 34.5V34.5ZM18.7046 14.8827C17.2484 14.8827 15.9106 15.4543 14.9374 16.4923C13.9497 17.546 13.4057 19.0025 13.4057 20.5937C13.4057 22.2726 14.0402 23.7742 15.4627 25.4623C16.8376 27.094 18.8828 28.8081 21.2507 30.7928L21.2551 30.7964C22.0829 31.4903 23.0213 32.2769 23.998 33.1168C24.9805 32.2752 25.9204 31.4874 26.7499 30.7924C29.1176 28.8077 31.1625 27.094 32.5375 25.4623C33.9598 23.7742 34.5943 22.2726 34.5943 20.5937C34.5943 19.0025 34.0503 17.546 33.0626 16.4923C32.0896 15.4543 30.7516 14.8827 29.2956 14.8827C28.2288 14.8827 27.2494 15.2162 26.3846 15.8739C25.6139 16.4602 25.077 17.2015 24.7623 17.7201C24.6004 17.9868 24.3155 18.146 24 18.146C23.6845 18.146 23.3996 17.9868 23.2377 17.7201C22.9232 17.2015 22.3863 16.4602 21.6154 15.8739C20.7506 15.2162 19.7712 14.8827 18.7046 14.8827V14.8827Z" fill="#A9FF35"/>
</svg>
