<svg width="32" height="32" viewBox="0 0 32 32" fill="none" xmlns="http://www.w3.org/2000/svg">
<path d="M16 25C15.7153 25 15.4408 24.8957 15.2268 24.7061C14.4189 23.9914 13.6399 23.3198 12.9527 22.7274L12.9492 22.7243C10.9342 20.9873 9.19427 19.4873 7.98364 18.0096C6.63034 16.3576 6 14.7914 6 13.0803C6 11.4179 6.56351 9.88418 7.58661 8.76153C8.62192 7.62561 10.0425 7 11.5872 7C12.7416 7 13.7989 7.36922 14.7296 8.09733C15.1992 8.46486 15.6249 8.91466 16 9.43932C16.3752 8.91466 16.8008 8.46486 17.2706 8.09733C18.2012 7.36922 19.2585 7 20.413 7C21.9575 7 23.3782 7.62561 24.4135 8.76153C25.4366 9.88418 26 11.4179 26 13.0803C26 14.7914 25.3698 16.3576 24.0165 18.0094C22.8059 19.4873 21.0661 20.9872 19.0515 22.724C18.363 23.3173 17.5828 23.99 16.773 24.7064C16.5592 24.8957 16.2846 25 16 25V25ZM11.5872 8.18516C10.3736 8.18516 9.25882 8.67509 8.44781 9.56481C7.62476 10.468 7.17142 11.7164 7.17142 13.0803C7.17142 14.5194 7.70013 15.8064 8.88559 17.2534C10.0314 18.652 11.7356 20.1212 13.7089 21.8224L13.7126 21.8255C14.4024 22.4202 15.1844 23.0945 15.9983 23.8144C16.8171 23.0931 17.6003 22.4177 18.2916 21.8221C20.2647 20.1209 21.9688 18.652 23.1146 17.2534C24.2999 15.8064 24.8286 14.5194 24.8286 13.0803C24.8286 11.7164 24.3752 10.468 23.5522 9.56481C22.7413 8.67509 21.6264 8.18516 20.413 8.18516C19.524 8.18516 18.7078 8.47103 17.9872 9.03475C17.3449 9.53734 16.8975 10.1727 16.6352 10.6172C16.5003 10.8458 16.2629 10.9823 16 10.9823C15.7371 10.9823 15.4997 10.8458 15.3648 10.6172C15.1026 10.1727 14.6552 9.53734 14.0128 9.03475C13.2922 8.47103 12.476 8.18516 11.5872 8.18516V8.18516Z" fill="#A9FF35"/>
</svg>
