<svg width="48" height="49" viewBox="0 0 48 49" fill="none" xmlns="http://www.w3.org/2000/svg">
<path d="M24 35C23.6583 35 23.3289 34.8783 23.0722 34.6571C22.1027 33.8233 21.1679 33.0398 20.3432 32.3486L20.339 32.345C17.9211 30.3185 15.8331 28.5685 14.3804 26.8445C12.7564 24.9173 12 23.0899 12 21.0937C12 19.1542 12.6762 17.3649 13.9039 16.0551C15.1463 14.7299 16.851 14 18.7046 14C20.09 14 21.3587 14.4308 22.4755 15.2802C23.0391 15.709 23.5499 16.2338 24 16.8459C24.4503 16.2338 24.9609 15.709 25.5247 15.2802C26.6415 14.4308 27.9102 14 29.2956 14C31.149 14 32.8539 14.7299 34.0963 16.0551C35.324 17.3649 36 19.1542 36 21.0937C36 23.0899 35.2438 24.9173 33.6198 26.8443C32.1671 28.5685 30.0793 30.3183 27.6617 32.3447C26.8356 33.0369 25.8994 33.8217 24.9276 34.6575C24.6711 34.8783 24.3415 35 24 35ZM18.7046 15.3827C17.2484 15.3827 15.9106 15.9543 14.9374 16.9923C13.9497 18.046 13.4057 19.5025 13.4057 21.0937C13.4057 22.7726 14.0402 24.2742 15.4627 25.9623C16.8376 27.594 18.8828 29.3081 21.2507 31.2928L21.2551 31.2964C22.0829 31.9902 23.0213 32.7769 23.998 33.6168C24.9805 32.7752 25.9204 31.9874 26.7499 31.2924C29.1176 29.3077 31.1625 27.594 32.5375 25.9623C33.9598 24.2742 34.5943 22.7726 34.5943 21.0937C34.5943 19.5025 34.0503 18.046 33.0626 16.9923C32.0896 15.9543 30.7516 15.3827 29.2956 15.3827C28.2288 15.3827 27.2494 15.7162 26.3846 16.3739C25.6139 16.9602 25.077 17.7015 24.7623 18.2201C24.6004 18.4868 24.3155 18.646 24 18.646C23.6845 18.646 23.3996 18.4868 23.2377 18.2201C22.9232 17.7015 22.3863 16.9602 21.6154 16.3739C20.7506 15.7162 19.7712 15.3827 18.7046 15.3827Z" fill="#202732"/>
</svg>
