<svg width="16" height="17" viewBox="0 0 16 17" fill="none" xmlns="http://www.w3.org/2000/svg">
<path d="M8 15.6099C7.77222 15.6099 7.55261 15.5273 7.38147 15.3774C6.73511 14.8123 6.11194 14.2811 5.56213 13.8126L5.55933 13.8102C3.94739 12.4365 2.55542 11.2502 1.58691 10.0817C0.504272 8.77527 0 7.53662 0 6.18347C0 4.86877 0.450806 3.65588 1.26929 2.76807C2.09753 1.86975 3.23401 1.375 4.46973 1.375C5.39331 1.375 6.23914 1.66699 6.98364 2.2428C7.35938 2.53345 7.69995 2.88916 8 3.30408C8.30017 2.88916 8.64062 2.53345 9.01648 2.2428C9.76099 1.66699 10.6068 1.375 11.5304 1.375C12.766 1.375 13.9026 1.86975 14.7308 2.76807C15.5493 3.65588 16 4.86877 16 6.18347C16 7.53662 15.4958 8.77527 14.4132 10.0815C13.4447 11.2502 12.0529 12.4364 10.4412 13.8099C9.89038 14.2792 9.26624 14.8112 8.61841 15.3777C8.44739 15.5273 8.22766 15.6099 8 15.6099ZM4.46973 2.31226C3.4989 2.31226 2.60706 2.69971 1.95825 3.40332C1.2998 4.11755 0.937134 5.10486 0.937134 6.18347C0.937134 7.32153 1.36011 8.33936 2.30847 9.48364C3.2251 10.5897 4.5885 11.7516 6.16711 13.0969L6.17004 13.0994C6.72192 13.5697 7.34753 14.1029 7.99866 14.6722C8.65369 14.1018 9.28027 13.5677 9.83325 13.0967C11.4117 11.7513 12.775 10.5897 13.6917 9.48364C14.6399 8.33936 15.0629 7.32153 15.0629 6.18347C15.0629 5.10486 14.7002 4.11755 14.0417 3.40332C13.3931 2.69971 12.5011 2.31226 11.5304 2.31226C10.8192 2.31226 10.1663 2.53833 9.58972 2.98413C9.07593 3.38159 8.71802 3.88403 8.50818 4.2356C8.40027 4.41638 8.21033 4.52429 8 4.52429C7.78967 4.52429 7.59973 4.41638 7.49182 4.2356C7.2821 3.88403 6.92419 3.38159 6.41028 2.98413C5.83374 2.53833 5.18079 2.31226 4.46973 2.31226Z" fill="#A9FF35"/>
</svg>
