<svg width="131" height="47" viewBox="0 0 131 47" fill="none" xmlns="http://www.w3.org/2000/svg">
<g clip-path="url(#clip0_1524_29406)">
<path d="M74.3948 18.138V14.2513C74.3948 13.9077 74.5323 13.5781 74.777 13.3352C75.0218 13.0922 75.3538 12.9557 75.6999 12.9557H83.531C83.8771 12.9557 84.2091 12.8192 84.4539 12.5762C84.6986 12.3333 84.8361 12.0037 84.8361 11.6601V1.29557C84.8361 0.951963 84.6986 0.62243 84.4539 0.379463C84.2091 0.136497 83.8771 0 83.531 0L73.0896 0C72.7434 0 72.4115 0.136497 72.1667 0.379463C71.9219 0.62243 71.7844 0.951963 71.7844 1.29557C71.7844 1.63918 71.9219 1.96871 72.1667 2.21167C72.4115 2.45464 72.7434 2.59114 73.0896 2.59114H80.9206C81.2668 2.59114 81.5987 2.72763 81.8435 2.9706C82.0883 3.21357 82.2258 3.5431 82.2258 3.88671V9.06898C82.2258 9.41259 82.0883 9.74212 81.8435 9.98509C81.5987 10.2281 81.2668 10.3646 80.9206 10.3646H73.0896C72.7434 10.3646 72.4115 10.501 72.1667 10.744C71.9219 10.987 71.7844 11.3165 71.7844 11.6601V20.7291C71.7844 23.8216 73.022 26.7874 75.2249 28.9741C77.4278 31.1607 80.4156 32.3892 83.531 32.3892C83.8771 32.3892 84.2091 32.2527 84.4539 32.0098C84.6986 31.7668 84.8361 31.4373 84.8361 31.0937V20.7291C84.8361 20.3855 84.6986 20.056 84.4539 19.813C84.2091 19.57 83.8771 19.4335 83.531 19.4335H75.6999C75.3538 19.4335 75.0218 19.297 74.777 19.0541C74.5323 18.8111 74.3948 18.4816 74.3948 18.138ZM82.3335 28.3892C82.3335 29.1503 81.6809 29.7463 81.0544 29.6459C79.5142 29.362 78.0947 28.6275 76.9783 27.5366C75.862 26.4458 75.0997 25.0485 74.7896 23.5243C74.7557 23.3376 74.7635 23.1458 74.8124 22.9624C74.8614 22.779 74.9503 22.6086 75.0729 22.4631C75.1956 22.3175 75.3489 22.2005 75.5221 22.1203C75.6952 22.0401 75.8841 21.9986 76.0752 21.9988L81.0283 22.0247C81.3744 22.0247 81.7064 22.1612 81.9512 22.4041C82.196 22.6471 82.3335 22.9766 82.3335 23.3202V28.3892Z" fill="#A9FF35"/>
<path d="M62.6482 14.2513V18.138C62.6482 18.4816 62.5106 18.8111 62.2659 19.0541C62.0211 19.297 61.6891 19.4335 61.343 19.4335H53.512C53.1658 19.4335 52.8338 19.57 52.5891 19.813C52.3443 20.056 52.2068 20.3855 52.2068 20.7291V31.0937C52.2068 31.4373 52.3443 31.7668 52.5891 32.0098C52.8338 32.2527 53.1658 32.3892 53.512 32.3892H63.9533C64.2995 32.3892 64.6315 32.2527 64.8762 32.0098C65.121 31.7668 65.2585 31.4373 65.2585 31.0937C65.2585 30.75 65.121 30.4205 64.8762 30.1775C64.6315 29.9346 64.2995 29.7981 63.9533 29.7981H56.1223C55.7761 29.7981 55.4442 29.6616 55.1994 29.4186C54.9546 29.1757 54.8171 28.8461 54.8171 28.5025V23.3202C54.8171 22.9766 54.9546 22.6471 55.1994 22.4041C55.4442 22.1612 55.7761 22.0247 56.1223 22.0247H63.9533C64.2995 22.0247 64.6315 21.8882 64.8762 21.6452C65.121 21.4022 65.2585 21.0727 65.2585 20.7291V11.6601C65.2585 8.56766 64.0209 5.60187 61.818 3.41517C59.6151 1.22847 56.6273 0 53.512 0V0C53.1658 0 52.8338 0.136497 52.5891 0.379463C52.3443 0.62243 52.2068 0.951963 52.2068 1.29557V11.6601C52.2068 12.0037 52.3443 12.3333 52.5891 12.5762C52.8338 12.8192 53.1658 12.9557 53.512 12.9557H61.343C61.6891 12.9557 62.0211 13.0922 62.2659 13.3352C62.5106 13.5781 62.6482 13.9077 62.6482 14.2513ZM54.7095 4.00655C54.7095 3.2454 55.362 2.64944 55.9885 2.74984C57.5283 3.0345 58.9474 3.76931 60.0636 4.86001C61.1799 5.95072 61.9424 7.34758 62.2533 8.87141C62.2873 9.0581 62.2795 9.24992 62.2305 9.43329C62.1815 9.61667 62.0926 9.78713 61.97 9.93264C61.8474 10.0781 61.694 10.1952 61.5209 10.2754C61.3477 10.3556 61.1589 10.3971 60.9678 10.3969L56.0146 10.3646C55.6685 10.3646 55.3365 10.2281 55.0917 9.98509C54.847 9.74212 54.7095 9.41259 54.7095 9.06898V4.00655Z" fill="#A9FF35"/>
<path d="M22.8405 0V0.0161946C22.6251 0.0161946 22.4065 0.0161946 22.1879 0.0161946L22.8405 0Z" fill="#1A1C32"/>
<path d="M6.17998 40.7197V45.3093H5.60897V41.6784L3.73931 44.749H3.4587L1.58578 41.672V45.3093H1.01477V40.7197H1.64778L3.60553 44.0267L5.60245 40.7197H6.17998Z" fill="white"/>
<path d="M13.1757 42.4656V45.3093H12.5786V44.5935C12.298 45.0632 11.7465 45.345 10.9895 45.345C9.94215 45.345 9.30261 44.8041 9.30261 44.0105C9.30261 43.3045 9.75942 42.715 11.0842 42.715H12.5525V42.4299C12.5525 41.6429 12.1055 41.2153 11.2473 41.2153C10.682 41.2145 10.1353 41.4157 9.70722 41.7822L9.42334 41.319C9.95966 40.9023 10.6252 40.6836 11.3061 40.7004C12.5003 40.6842 13.1757 41.2769 13.1757 42.4656ZM12.5525 43.9296V43.1781H11.094C10.1967 43.1781 9.90625 43.5279 9.90625 44.0008C9.90625 44.532 10.337 44.8624 11.0744 44.8624C11.3888 44.8841 11.702 44.8052 11.968 44.6374C12.2341 44.4695 12.4389 44.2214 12.5525 43.9296Z" fill="white"/>
<path d="M19.8647 41.2703H17.2184V45.3093H16.5952V40.7197H19.8581L19.8647 41.2703Z" fill="white"/>
<path d="M25.9892 42.4656V45.3093H25.3921V44.5935C25.1245 45.0632 24.5666 45.345 23.8194 45.345C22.772 45.345 22.1324 44.8041 22.1324 44.0105C22.1324 43.3045 22.5893 42.715 23.914 42.715H25.3823V42.4299C25.3823 41.6429 24.9353 41.2153 24.0772 41.2153C23.5043 41.2105 22.949 41.4118 22.5142 41.7822L22.2336 41.319C22.7699 40.9023 23.4355 40.6836 24.1163 40.7004C25.3138 40.6842 25.9892 41.2769 25.9892 42.4656ZM25.366 43.9296V43.1781H23.9173C23.02 43.1781 22.7296 43.5279 22.7296 44.0008C22.7296 44.532 23.1603 44.8624 23.8977 44.8624C24.2105 44.882 24.5215 44.8021 24.7856 44.6344C25.0496 44.4666 25.2529 44.2198 25.366 43.9296Z" fill="white"/>
<path d="M32.5901 43.9911C32.5901 44.8203 31.6667 45.3612 30.5149 45.3612C29.8603 45.372 29.2196 45.1732 28.6876 44.7944L28.8997 44.3312C29.3637 44.6582 29.9198 44.8316 30.4888 44.8267C31.3241 44.8267 31.9473 44.5029 31.9473 43.9393C31.9473 43.4502 31.4742 43.1619 30.7008 43.1619H29.9112V42.7085H30.6715C31.3502 42.7085 31.8233 42.4397 31.8233 41.9862C31.8233 41.4777 31.2784 41.1992 30.541 41.1992C30.0252 41.2058 29.5184 41.3346 29.0629 41.5749L28.8867 41.0955C29.4148 40.8156 30.0042 40.6688 30.603 40.668C31.6569 40.668 32.4661 41.1473 32.4661 41.8988C32.4661 42.3781 32.1039 42.7441 31.5688 42.919C32.2116 43.0777 32.5901 43.4502 32.5901 43.9911Z" fill="white"/>
<path d="M35.7617 40.7197H36.3882V44.3732L39.4815 40.7197H40.0329V45.3093H39.4097V41.6623L36.336 45.3093H35.7617V40.7197Z" fill="white"/>
<path d="M43.5667 40.7197H44.1899V42.7538H47.1004V40.7197H47.7236V45.3093H47.1004V43.285H44.1899V45.3093H43.5667V40.7197Z" fill="white"/>
<path d="M59.0231 43.0129C59.0261 43.3293 58.9641 43.6429 58.8409 43.9347C58.7177 44.2265 58.5359 44.4903 58.3066 44.7101C58.0773 44.9298 57.8053 45.1009 57.5072 45.2128C57.2091 45.3248 56.8911 45.3752 56.5727 45.3611C56.228 45.3769 55.8837 45.323 55.5606 45.2027C55.2376 45.0825 54.9425 44.8983 54.6932 44.6615L55.0619 44.2955C55.4647 44.6656 55.998 44.8634 56.5466 44.8461C57.0082 44.8626 57.4589 44.7046 57.8078 44.404C58.1566 44.1034 58.3776 43.6827 58.426 43.2267H55.9592V42.7538H58.4064C58.3458 42.3095 58.1201 41.9037 57.7736 41.616C57.4271 41.3284 56.9848 41.1797 56.5335 41.1991C55.985 41.1818 55.4517 41.3796 55.0489 41.7497L54.6802 41.3934C54.9294 41.1566 55.2245 40.9725 55.5476 40.8522C55.8707 40.7319 56.215 40.6781 56.5596 40.6938C56.8771 40.6762 57.1948 40.7231 57.4933 40.8317C57.7918 40.9404 58.0648 41.1085 58.2955 41.3257C58.5262 41.5428 58.7098 41.8045 58.8349 42.0947C58.96 42.3848 59.0241 42.6973 59.0231 43.0129Z" fill="white"/>
<path d="M65.8426 40.7197V45.3093H65.2194V41.2703H63.0071L62.9451 42.404C62.8635 44.0234 62.6645 45.3676 61.6693 45.3676C61.518 45.3637 61.3678 45.3408 61.2223 45.2996L61.2647 44.7684C61.3375 44.7857 61.4118 44.7966 61.4866 44.8008C62.2501 44.8008 62.3219 43.5732 62.3806 42.3586L62.4622 40.7197H65.8426Z" fill="white"/>
<path d="M73.4159 43.2072H69.5525C69.5658 43.4308 69.6236 43.6496 69.7224 43.851C69.8213 44.0523 69.9593 44.2322 70.1286 44.3804C70.2978 44.5285 70.495 44.6419 70.7086 44.7141C70.9222 44.7862 71.1481 44.8157 71.3733 44.8008C71.6385 44.8087 71.9022 44.7592 72.1462 44.6558C72.3902 44.5523 72.6086 44.3973 72.7861 44.2016L73.1385 44.6C72.9147 44.8475 72.6389 45.0431 72.3304 45.173C72.022 45.3029 71.6885 45.3638 71.3537 45.3514C69.9147 45.3514 68.9293 44.3797 68.9293 43.0129C68.9127 42.7102 68.9591 42.4072 69.0655 42.1231C69.1719 41.8389 69.3362 41.5795 69.548 41.361C69.7598 41.1425 70.0147 40.9697 70.2967 40.8533C70.5787 40.7368 70.8819 40.6792 71.1873 40.6841C72.4924 40.6841 73.4289 41.6364 73.4289 43.0129C73.4159 43.0777 73.4159 43.136 73.4159 43.2072ZM69.5525 42.7538H72.8318C72.8318 42.3221 72.659 41.9082 72.3516 41.6029C72.0441 41.2977 71.627 41.1262 71.1922 41.1262C70.7573 41.1262 70.3403 41.2977 70.0328 41.6029C69.7253 41.9082 69.5525 42.3221 69.5525 42.7538Z" fill="white"/>
<path d="M78.245 43.2655H77.1911V45.3093H76.5646V40.7197H77.1911V42.7343H78.2515L79.883 40.7197H80.5584L78.741 42.9449L80.6987 45.3093H79.9417L78.245 43.2655Z" fill="white"/>
<path d="M86.5851 41.2703H84.8361V45.3093H84.2129V41.2703H82.464V40.7197H86.5851V41.2703Z" fill="white"/>
<path d="M93.9298 43.013C93.9462 43.3197 93.8984 43.6264 93.7893 43.9138C93.6802 44.2012 93.5123 44.4631 93.2961 44.6828C93.08 44.9025 92.8203 45.0754 92.5334 45.1905C92.2465 45.3056 91.9388 45.3604 91.6295 45.3515C91.2825 45.3631 90.9384 45.2857 90.6304 45.1269C90.3223 44.968 90.0607 44.733 89.8708 44.4446V47.0001H89.2476V40.7198H89.8447V41.6267C90.0323 41.3276 90.2961 41.0829 90.6095 40.9174C90.9229 40.7519 91.2747 40.6714 91.6295 40.6842C91.938 40.6748 92.2452 40.729 92.5315 40.8434C92.8179 40.9577 93.0774 41.1297 93.2935 41.3485C93.5096 41.5673 93.6777 41.8281 93.7872 42.1146C93.8968 42.401 93.9453 42.7069 93.9298 43.013ZM93.3066 43.013C93.2919 42.6775 93.1782 42.3537 92.9797 42.0819C92.7812 41.81 92.5066 41.602 92.19 41.4838C91.8734 41.3656 91.5288 41.3423 91.199 41.4168C90.8691 41.4914 90.5687 41.6605 90.3348 41.9031C90.101 42.1458 89.9442 42.4513 89.8838 42.7816C89.8234 43.112 89.8622 43.4527 89.9952 43.7614C90.1283 44.0701 90.3498 44.3332 90.6322 44.518C90.9147 44.7028 91.2455 44.8012 91.5838 44.8008C91.8187 44.8057 92.0521 44.7623 92.2692 44.6733C92.4864 44.5843 92.6826 44.4517 92.8457 44.2838C93.0087 44.1158 93.135 43.9163 93.2165 43.6976C93.2981 43.4789 93.3332 43.2458 93.3197 43.013H93.3066Z" fill="white"/>
<path d="M96.5827 43.0129C96.5834 42.5513 96.7218 42.1003 96.9805 41.7168C97.2393 41.3332 97.6068 41.0344 98.0365 40.858C98.4662 40.6817 98.939 40.6357 99.395 40.7259C99.8511 40.8161 100.27 41.0385 100.599 41.3649C100.928 41.6913 101.152 42.1071 101.242 42.5598C101.333 43.0125 101.287 43.4818 101.109 43.9083C100.932 44.3349 100.631 44.6997 100.244 44.9565C99.8579 45.2134 99.4035 45.3508 98.9385 45.3514C98.6265 45.3613 98.3157 45.3076 98.0253 45.1936C97.735 45.0796 97.4713 44.9077 97.2505 44.6885C97.0297 44.4694 96.8566 44.2076 96.7417 43.9194C96.6268 43.6312 96.5727 43.3227 96.5827 43.0129ZM100.652 43.0129C100.636 42.679 100.521 42.357 100.322 42.087C100.124 41.8171 99.8496 41.6109 99.534 41.4943C99.2183 41.3776 98.8751 41.3555 98.5469 41.4308C98.2188 41.506 97.9201 41.6753 97.6879 41.9176C97.4558 42.1598 97.3005 42.4644 97.2412 42.7936C97.1819 43.1227 97.2214 43.4618 97.3546 43.7689C97.4878 44.076 97.7089 44.3375 97.9905 44.521C98.272 44.7044 98.6017 44.8017 98.9385 44.8008C99.1725 44.8054 99.4048 44.7616 99.6208 44.6723C99.8368 44.5829 100.032 44.4499 100.193 44.2818C100.354 44.1137 100.479 43.914 100.558 43.6956C100.638 43.4771 100.671 43.2447 100.655 43.0129H100.652Z" fill="white"/>
<path d="M104.381 40.7197H105.004V42.7538H107.911V40.7197H108.538V45.3093H107.911V43.285H105.004V45.3093H104.381V40.7197Z" fill="white"/>
<path d="M112.068 40.7197H112.695V44.3732L115.778 40.7262H116.333V45.3158H115.707V41.6623L112.633 45.3093H112.068V40.7197Z" fill="white"/>
<path d="M121.551 43.2655H120.497V45.3093H119.873V40.7197H120.497V42.7343H121.56L123.192 40.7197H123.87L122.033 42.9449L123.991 45.3093H123.254L121.551 43.2655Z" fill="white"/>
<path d="M126.739 40.7197H127.362V44.3732L130.445 40.7262H131V45.3158H130.374V41.6623L127.3 45.3093H126.739V40.7197Z" fill="white"/>
<path d="M123.838 22.5236C122.122 20.9688 119.907 20.068 117.586 19.981C117.459 19.981 117.332 19.981 117.201 19.981C114.023 19.981 111.586 21.6005 109.386 23.7997L104.052 29.0856C103.592 29.5418 102.969 29.7981 102.319 29.7982H100.309C99.825 29.7984 99.3518 29.6562 98.9493 29.3895C98.5467 29.1227 98.2329 28.7435 98.0474 28.2998C97.862 27.8561 97.8133 27.3677 97.9074 26.8965C98.0015 26.4252 98.2343 25.9923 98.5763 25.6524L106.371 17.9113C106.599 17.686 106.779 17.4184 106.902 17.1239C107.025 16.8293 107.089 16.5136 107.089 16.1947C107.089 15.8758 107.025 15.5601 106.902 15.2655C106.779 14.971 106.599 14.7034 106.371 14.4781L98.5731 6.73705C98.2309 6.39694 97.998 5.96369 97.904 5.49215C97.8099 5.02061 97.8589 4.53198 98.0448 4.0881C98.2307 3.64422 98.545 3.26506 98.948 2.9986C99.3511 2.73214 99.8247 2.59037 100.309 2.59123H102.312C102.636 2.59143 102.956 2.65506 103.254 2.77846C103.553 2.90186 103.824 3.08259 104.052 3.31027C105.869 5.13378 110.538 9.81078 110.904 10.112L110.93 10.1347C112.695 11.5853 114.916 12.3781 117.208 12.376H117.609C120.061 12.2845 122.389 11.285 124.135 9.57434L129.884 3.88679C130.209 3.57041 130.432 3.16471 130.523 2.7218C130.615 2.27889 130.571 1.81899 130.397 1.40118C130.223 0.983375 129.927 0.626735 129.547 0.377073C129.167 0.127411 128.721 -0.00387171 128.266 8.69587e-05H118.477C117.827 0.000150855 117.204 0.256466 116.744 0.71265L110.94 6.47793L105.132 0.71265C104.672 0.256466 104.049 0.000150855 103.399 8.69587e-05H93.6102C93.1567 0.000664016 92.7136 0.135223 92.3375 0.386622C91.9613 0.63802 91.669 0.99488 91.4979 1.41174C91.3268 1.8286 91.2845 2.28659 91.3766 2.72737C91.4686 3.16815 91.6907 3.57176 92.0146 3.88679L102.684 14.4781C102.912 14.7034 103.092 14.971 103.215 15.2655C103.338 15.5601 103.401 15.8758 103.401 16.1947C103.401 16.5136 103.338 16.8293 103.215 17.1239C103.092 17.4184 102.912 17.686 102.684 17.9113L92.0146 28.5188C91.6895 28.835 91.4669 29.2404 91.3755 29.683C91.2841 30.1256 91.328 30.5852 91.5016 31.0029C91.6751 31.4206 91.9705 31.7772 92.3496 32.0271C92.7288 32.2771 93.1746 32.4088 93.6297 32.4055H103.419C104.068 32.4054 104.692 32.1491 105.151 31.6929L107.347 29.5132L110.94 25.9115L116.748 31.6768C117.207 32.1329 117.83 32.3892 118.48 32.3893H128.269C128.724 32.3926 129.17 32.2609 129.549 32.011C129.928 31.761 130.224 31.4044 130.397 30.9867C130.571 30.569 130.615 30.1094 130.523 29.6668C130.432 29.2242 130.209 28.8188 129.884 28.5026L123.838 22.5236ZM119.56 2.59123H127.479L122.624 7.41074L122.605 7.43341C122.445 7.60184 122.278 7.75731 122.109 7.92249C120.77 9.13153 119.024 9.79938 117.214 9.79459H117.139C116.66 9.78229 116.196 9.63077 115.803 9.35883C115.41 9.08689 115.106 8.70648 114.929 8.26474C114.752 7.82301 114.709 7.33938 114.806 6.87379C114.903 6.40821 115.136 5.98114 115.475 5.64553L117.834 3.30379C118.292 2.84919 118.913 2.593 119.56 2.59123ZM127.479 29.7982H119.56C118.91 29.7981 118.287 29.5418 117.828 29.0856L112.786 24.0815L112.767 24.062C114.098 23.0432 115.745 22.5144 117.425 22.5658C119.105 22.6172 120.716 23.2456 121.981 24.3438L122.686 25.0272L127.479 29.7982Z" fill="#A9FF35"/>
<path d="M43.8864 16.1946H24.1457C23.7995 16.1946 23.4675 16.3311 23.2228 16.5741C22.978 16.8171 22.8405 17.1466 22.8405 17.4902C22.8405 17.8338 22.978 18.1633 23.2228 18.4063C23.4675 18.6493 23.7995 18.7858 24.1457 18.7858H31.3241C31.6703 18.7858 32.0022 18.9223 32.247 19.1652C32.4918 19.4082 32.6293 19.7377 32.6293 20.0813V21.3769C32.6293 21.7205 32.4918 22.05 32.247 22.293C32.0022 22.536 31.6703 22.6725 31.3241 22.6725H16.3146C15.4493 22.6725 14.6193 22.3312 14.0074 21.7238C13.3955 21.1164 13.0517 20.2926 13.0517 19.4335V12.9557C13.0517 12.0967 13.3955 11.2729 14.0074 10.6654C14.6193 10.058 15.4493 9.71678 16.3146 9.71678H30.8445C31.22 9.71745 31.5838 9.8467 31.8745 10.0827C32.1652 10.3188 32.3649 10.6471 32.44 11.0123C32.4824 11.2326 32.5183 11.4528 32.5477 11.6763C32.5884 12.0317 32.7591 12.3598 33.0273 12.5986C33.2955 12.8374 33.6427 12.9702 34.003 12.9719H44.2127C44.6021 12.9719 44.9756 12.8183 45.2509 12.545C45.5263 12.2717 45.681 11.9009 45.681 11.5144V10.3646C45.6852 7.83894 44.7565 5.39941 43.0706 3.50777C42.7819 3.18389 42.4735 2.87778 42.1472 2.59115C40.2416 0.917686 37.784 -0.00419624 35.2396 1.436e-05H10.4414C7.89704 -0.00419624 5.43943 0.917686 3.53376 2.59115C3.20748 2.87778 2.89911 3.18389 2.61036 3.50777C0.924487 5.39941 -0.00422734 7.83894 1.44665e-05 10.3646V22.0247C-0.00422734 24.5503 0.924487 26.9898 2.61036 28.8815C2.89911 29.2054 3.20748 29.5115 3.53376 29.7981C5.43943 31.4716 7.89704 32.3934 10.4414 32.3892H43.8864C44.3623 32.3892 44.8188 32.2015 45.1554 31.8675C45.4919 31.5334 45.681 31.0803 45.681 30.6078V17.976C45.681 17.5036 45.4919 17.0505 45.1554 16.7164C44.8188 16.3823 44.3623 16.1946 43.8864 16.1946ZM35.2396 2.59115C37.0036 2.5909 38.7159 3.18181 40.0993 4.26816C41.4827 5.35451 42.4561 6.87266 42.8618 8.57668C42.9112 8.78979 42.9117 9.01118 42.8633 9.22451C42.815 9.43784 42.719 9.63768 42.5824 9.80927C42.4459 9.98087 42.2723 10.1198 42.0744 10.216C41.8765 10.3121 41.6595 10.3628 41.4392 10.3646H34.9753C34.5908 8.48561 33.7894 6.7153 32.6293 5.18229L32.6064 5.15314C32.4228 4.91901 32.309 4.63848 32.2779 4.34338C32.2468 4.04828 32.2996 3.75044 32.4305 3.48365C32.5613 3.21686 32.7648 2.99182 33.018 2.83406C33.2711 2.6763 33.5638 2.59215 33.8627 2.59115H35.2396ZM16.3146 7.12564C14.757 7.12564 13.2631 7.73988 12.1616 8.83323C11.0602 9.92657 10.4414 11.4095 10.4414 12.9557V19.4335C10.4414 20.9798 11.0602 22.4627 12.1616 23.556C13.2631 24.6494 14.757 25.2636 16.3146 25.2636H33.445C33.921 25.2636 34.3774 25.0759 34.714 24.7418C35.0505 24.4078 35.2396 23.9547 35.2396 23.4822V20.2433C35.2396 19.8567 35.3943 19.486 35.6697 19.2127C35.945 18.9393 36.3185 18.7858 36.7079 18.7858H41.6023C41.9918 18.7858 42.3652 18.9393 42.6406 19.2127C42.9159 19.486 43.0706 19.8567 43.0706 20.2433V28.3406C43.0711 28.5321 43.0334 28.7218 42.9598 28.8989C42.8861 29.0759 42.778 29.2367 42.6415 29.3722C42.5051 29.5076 42.3431 29.6149 42.1647 29.688C41.9864 29.7611 41.7953 29.7985 41.6023 29.7981H10.4414C8.36446 29.7981 6.37261 28.9791 4.90401 27.5213C3.43541 26.0635 2.61036 24.0863 2.61036 22.0247V10.3646C2.61036 8.30293 3.43541 6.32573 4.90401 4.86793C6.37261 3.41013 8.36446 2.59115 10.4414 2.59115H22.2108C22.4196 2.59115 22.6317 2.59115 22.8405 2.61059C25.2207 2.75738 27.4776 3.71228 29.2326 5.31508C29.389 5.45558 29.499 5.63969 29.5482 5.84329C29.5975 6.04689 29.5836 6.26051 29.5085 6.45618C29.4334 6.65184 29.3005 6.82044 29.1273 6.93989C28.9541 7.05934 28.7485 7.12408 28.5376 7.12564H16.3146Z" fill="#A9FF35"/>
</g>
<defs>
<clipPath id="clip0_1524_29406">
<rect width="131" height="47" fill="white"/>
</clipPath>
</defs>
</svg>
