<svg width="88" height="21" viewBox="0 0 88 21" fill="none" xmlns="http://www.w3.org/2000/svg">
<g clip-path="url(#clip0_1595_30465)">
<path d="M49.9751 11.8289V9.29415C49.9751 9.07006 50.0674 8.85515 50.2319 8.6967C50.3963 8.53825 50.6193 8.44923 50.8518 8.44923H56.1124C56.3449 8.44923 56.5679 8.36021 56.7323 8.20176C56.8967 8.0433 56.9891 7.82839 56.9891 7.60431V0.844923C56.9891 0.620835 56.8967 0.405926 56.7323 0.247472C56.5679 0.0890184 56.3449 0 56.1124 0L49.0983 0C48.8658 0 48.6428 0.0890184 48.4784 0.247472C48.3139 0.405926 48.2216 0.620835 48.2216 0.844923C48.2216 1.06901 48.3139 1.28392 48.4784 1.44237C48.6428 1.60083 48.8658 1.68985 49.0983 1.68985H54.3588C54.5914 1.68985 54.8144 1.77886 54.9788 1.93732C55.1432 2.09577 55.2356 2.31068 55.2356 2.53477V5.91446C55.2356 6.13855 55.1432 6.35346 54.9788 6.51191C54.8144 6.67036 54.5914 6.75938 54.3588 6.75938H49.0983C48.8658 6.75938 48.6428 6.8484 48.4784 7.00685C48.3139 7.16531 48.2216 7.38022 48.2216 7.60431V13.5188C48.2216 15.5356 49.0529 17.4697 50.5327 18.8958C52.0125 20.3219 54.0196 21.1231 56.1124 21.1231C56.3449 21.1231 56.5679 21.0341 56.7323 20.8756C56.8967 20.7171 56.9891 20.5022 56.9891 20.2781V13.5188C56.9891 13.2947 56.8967 13.0798 56.7323 12.9213C56.5679 12.7629 56.3449 12.6738 56.1124 12.6738H50.8518C50.6193 12.6738 50.3963 12.5848 50.2319 12.4264C50.0674 12.2679 49.9751 12.053 49.9751 11.8289ZM55.3079 18.5144C55.3079 19.0108 54.8696 19.3994 54.4487 19.3339C53.4141 19.1488 52.4605 18.6698 51.7106 17.9584C50.9607 17.247 50.4486 16.3357 50.2403 15.3417C50.2175 15.2199 50.2227 15.0948 50.2556 14.9752C50.2885 14.8557 50.3483 14.7445 50.4306 14.6496C50.513 14.5547 50.616 14.4784 50.7323 14.4261C50.8487 14.3737 50.9755 14.3467 51.1039 14.3468L54.4312 14.3637C54.6637 14.3637 54.8867 14.4527 55.0511 14.6112C55.2156 14.7696 55.3079 14.9845 55.3079 15.2086V18.5144Z" fill="#A9FF35"/>
<path d="M42.0843 9.29415V11.8289C42.0843 12.053 41.9919 12.2679 41.8275 12.4264C41.6631 12.5848 41.4401 12.6738 41.2075 12.6738H35.947C35.7145 12.6738 35.4915 12.7629 35.327 12.9213C35.1626 13.0798 35.0703 13.2947 35.0703 13.5188V20.2781C35.0703 20.5022 35.1626 20.7171 35.327 20.8756C35.4915 21.0341 35.7145 21.1231 35.947 21.1231H42.9611C43.1936 21.1231 43.4166 21.0341 43.581 20.8756C43.7454 20.7171 43.8378 20.5022 43.8378 20.2781C43.8378 20.0541 43.7454 19.8391 43.581 19.6807C43.4166 19.5222 43.1936 19.4332 42.9611 19.4332H37.7005C37.468 19.4332 37.245 19.3442 37.0806 19.1858C36.9161 19.0273 36.8238 18.8124 36.8238 18.5883V15.2086C36.8238 14.9845 36.9161 14.7696 37.0806 14.6112C37.245 14.4527 37.468 14.3637 37.7005 14.3637H42.9611C43.1936 14.3637 43.4166 14.2747 43.581 14.1162C43.7454 13.9578 43.8378 13.7429 43.8378 13.5188V7.60431C43.8378 5.58752 43.0065 3.65333 41.5266 2.22725C40.0468 0.801166 38.0398 0 35.947 0V0C35.7145 0 35.4915 0.0890184 35.327 0.247472C35.1626 0.405926 35.0703 0.620835 35.0703 0.844923V7.60431C35.0703 7.82839 35.1626 8.0433 35.327 8.20176C35.4915 8.36021 35.7145 8.44923 35.947 8.44923H41.2075C41.4401 8.44923 41.6631 8.53825 41.8275 8.6967C41.9919 8.85515 42.0843 9.07006 42.0843 9.29415ZM36.7514 2.61292C36.7514 2.11653 37.1898 1.72787 37.6107 1.79335C38.645 1.97899 39.5983 2.4582 40.3481 3.16952C41.098 3.88084 41.6102 4.79182 41.8191 5.78561C41.8419 5.90736 41.8366 6.03246 41.8037 6.15205C41.7709 6.27164 41.7111 6.38281 41.6287 6.47771C41.5464 6.5726 41.4434 6.64891 41.327 6.70123C41.2107 6.75355 41.0839 6.78061 40.9555 6.78051L37.6282 6.75938C37.3957 6.75938 37.1727 6.67036 37.0082 6.51191C36.8438 6.35346 36.7514 6.13855 36.7514 5.91446V2.61292Z" fill="#A9FF35"/>
<path d="M15.3432 0V0.00792502C15.1986 0.00792502 15.0517 0.00792502 14.9048 0.00792502L15.3432 0Z" fill="#1A1C32"/>
<path d="M83.1888 14.689C82.0364 13.6751 80.5484 13.0876 78.9891 13.0309C78.9036 13.0309 78.8182 13.0309 78.7305 13.0309C76.5956 13.0309 74.9582 14.087 73.4809 15.5213L69.8972 18.9686C69.5885 19.2661 69.1698 19.4332 68.7333 19.4333H67.3831C67.058 19.4334 66.7401 19.3407 66.4697 19.1667C66.1993 18.9928 65.9884 18.7455 65.8639 18.4561C65.7393 18.1667 65.7066 17.8482 65.7698 17.5409C65.833 17.2336 65.9894 16.9512 66.2192 16.7295L71.4556 11.6811C71.6083 11.5342 71.7294 11.3597 71.8121 11.1676C71.8947 10.9755 71.9373 10.7695 71.9373 10.5616C71.9373 10.3536 71.8947 10.1477 71.8121 9.95562C71.7294 9.76352 71.6083 9.58901 71.4556 9.44207L66.217 4.39366C65.9871 4.17185 65.8307 3.8893 65.7675 3.58178C65.7043 3.27426 65.7372 2.95559 65.8621 2.66611C65.9869 2.37663 66.1981 2.12935 66.4689 1.95558C66.7396 1.7818 67.0578 1.68934 67.3831 1.6899H68.7289C68.9461 1.69004 69.1611 1.73153 69.3616 1.81201C69.5621 1.89249 69.7441 2.01035 69.8972 2.15883C71.118 3.34806 74.2546 6.39824 74.5001 6.59468L74.5177 6.60947C75.7036 7.55552 77.1953 8.07255 78.7349 8.07118H79.0045C80.6513 8.01153 82.2153 7.35967 83.3883 6.24404L87.2504 2.53483C87.4689 2.32849 87.6185 2.06391 87.6798 1.77506C87.7411 1.48621 87.7115 1.18628 87.5946 0.9138C87.4777 0.641321 87.279 0.408734 87.0239 0.245914C86.7689 0.0830931 86.4691 -0.00252499 86.1632 5.67113e-05H79.5875C79.151 9.83824e-05 78.7323 0.167258 78.4236 0.464764L74.5242 4.22467L70.6227 0.464764C70.314 0.167258 69.8953 9.83824e-05 69.4588 5.67113e-05H62.8831C62.5785 0.000433047 62.2809 0.0881873 62.0282 0.25214C61.7755 0.416094 61.5791 0.648824 61.4642 0.920685C61.3492 1.19255 61.3209 1.49123 61.3827 1.77869C61.4445 2.06615 61.5937 2.32937 61.8113 2.53483L68.9788 9.44207C69.1315 9.58901 69.2526 9.76352 69.3352 9.95562C69.4179 10.1477 69.4604 10.3536 69.4604 10.5616C69.4604 10.7695 69.4179 10.9755 69.3352 11.1676C69.2526 11.3597 69.1315 11.5342 68.9788 11.6811L61.8113 18.5989C61.5929 18.8051 61.4434 19.0695 61.382 19.3582C61.3206 19.6468 61.35 19.9466 61.4666 20.219C61.5832 20.4913 61.7816 20.724 62.0363 20.8869C62.2911 21.0499 62.5905 21.1358 62.8963 21.1337H69.4719C69.9085 21.1336 70.3272 20.9665 70.6358 20.669L72.111 19.2474L74.5242 16.8985L78.4258 20.6584C78.7345 20.9559 79.1531 21.1231 79.5897 21.1231H86.1654C86.4711 21.1253 86.7706 21.0394 87.0253 20.8764C87.28 20.7134 87.4784 20.4808 87.595 20.2084C87.7116 19.936 87.7411 19.6363 87.6797 19.3476C87.6183 19.059 87.4688 18.7946 87.2504 18.5884L83.1888 14.689ZM80.3152 1.6899H85.6349L82.3734 4.83302L82.3603 4.8478C82.2529 4.95764 82.1411 5.05903 82.0271 5.16676C81.1279 5.95525 79.955 6.3908 78.7393 6.38767H78.6888C78.3672 6.37965 78.0551 6.28084 77.7911 6.10349C77.5272 5.92614 77.3231 5.67805 77.2041 5.38996C77.085 5.10188 77.0564 4.78647 77.1216 4.48284C77.1868 4.1792 77.3431 3.90068 77.571 3.68181L79.1557 2.15461C79.4633 1.85814 79.8802 1.69106 80.3152 1.6899ZM85.6349 19.4333H80.3152C79.8787 19.4332 79.46 19.2661 79.1513 18.9686L75.7649 15.7051L75.7517 15.6924C76.6461 15.0279 77.752 14.6831 78.8808 14.7166C80.0096 14.7501 81.0913 15.1599 81.9416 15.8762L82.4151 16.3219L85.6349 19.4333Z" fill="#A9FF35"/>
<path d="M29.4809 10.5615H16.2199C15.9874 10.5615 15.7644 10.6506 15.6 10.809C15.4356 10.9675 15.3432 11.1824 15.3432 11.4065C15.3432 11.6306 15.4356 11.8455 15.6 12.0039C15.7644 12.1624 15.9874 12.2514 16.2199 12.2514H21.0421C21.2746 12.2514 21.4976 12.3404 21.6621 12.4989C21.8265 12.6573 21.9188 12.8722 21.9188 13.0963V13.9412C21.9188 14.1653 21.8265 14.3802 21.6621 14.5387C21.4976 14.6971 21.2746 14.7862 21.0421 14.7862H10.9594C10.3781 14.7862 9.82056 14.5636 9.4095 14.1675C8.99844 13.7713 8.76751 13.2341 8.76751 12.6738V8.44924C8.76751 7.88902 8.99844 7.35174 9.4095 6.95561C9.82056 6.55947 10.3781 6.33693 10.9594 6.33693H20.7199C20.9722 6.33737 21.2165 6.42166 21.4118 6.57559C21.6071 6.72952 21.7413 6.94365 21.7917 7.18185C21.8202 7.32549 21.8443 7.46913 21.8641 7.61487C21.8914 7.84662 22.0061 8.06063 22.1862 8.21636C22.3664 8.37209 22.5996 8.45871 22.8416 8.4598H29.7001C29.9617 8.4598 30.2125 8.35965 30.3975 8.18139C30.5825 8.00313 30.6864 7.76136 30.6864 7.50926V6.75939C30.6893 5.11227 30.0654 3.5213 28.9329 2.28764C28.7389 2.07642 28.5318 1.87678 28.3126 1.68985C27.0325 0.598481 25.3815 -0.00273663 23.6724 9.3651e-06H7.014C5.30482 -0.00273663 3.6539 0.598481 2.37377 1.68985C2.15459 1.87678 1.94743 2.07642 1.75346 2.28764C0.620968 3.5213 -0.00290077 5.11227 -5.13172e-05 6.75939V14.3637C-0.00290077 16.0108 0.620968 17.6018 1.75346 18.8354C1.94743 19.0467 2.15459 19.2463 2.37377 19.4332C3.6539 20.5246 5.30482 21.1258 7.014 21.1231H29.4809C29.8006 21.1231 30.1072 21.0007 30.3333 20.7828C30.5594 20.5649 30.6864 20.2694 30.6864 19.9613V11.7233C30.6864 11.4152 30.5594 11.1197 30.3333 10.9018C30.1072 10.6839 29.8006 10.5615 29.4809 10.5615ZM23.6724 1.68985C24.8573 1.68969 26.0076 2.07506 26.9369 2.78354C27.8662 3.49201 28.5201 4.4821 28.7926 5.5934C28.8258 5.73238 28.8261 5.87676 28.7936 6.01589C28.7611 6.15502 28.6967 6.28534 28.6049 6.39725C28.5132 6.50916 28.3966 6.59979 28.2637 6.66247C28.1308 6.72515 27.9849 6.75827 27.837 6.75939H23.4948C23.2365 5.53401 22.6981 4.37948 21.9188 3.3797L21.9035 3.36069C21.7802 3.208 21.7037 3.02505 21.6828 2.83259C21.6619 2.64014 21.6974 2.4459 21.7853 2.27191C21.8732 2.09792 22.0099 1.95116 22.1799 1.84827C22.35 1.74539 22.5466 1.69051 22.7474 1.68985H23.6724ZM10.9594 4.64708C9.91301 4.64708 8.90948 5.04767 8.16958 5.76071C7.42967 6.47375 7.014 7.44084 7.014 8.44924V12.6738C7.014 13.6822 7.42967 14.6493 8.16958 15.3624C8.90948 16.0754 9.91301 16.476 10.9594 16.476H22.4668C22.7866 16.476 23.0932 16.3536 23.3193 16.1357C23.5453 15.9179 23.6724 15.6224 23.6724 15.3142V13.2019C23.6724 12.9498 23.7763 12.7081 23.9613 12.5298C24.1462 12.3515 24.3971 12.2514 24.6587 12.2514H27.9465C28.2081 12.2514 28.459 12.3515 28.644 12.5298C28.829 12.7081 28.9329 12.9498 28.9329 13.2019V18.4827C28.9332 18.6076 28.9079 18.7313 28.8584 18.8468C28.8089 18.9622 28.7363 19.0671 28.6446 19.1554C28.553 19.2438 28.4441 19.3138 28.3243 19.3614C28.2045 19.4091 28.0762 19.4335 27.9465 19.4332H7.014C5.61882 19.4332 4.28078 18.8991 3.29424 17.9484C2.30769 16.9977 1.75346 15.7082 1.75346 14.3637V6.75939C1.75346 5.41487 2.30769 4.12541 3.29424 3.17469C4.28078 2.22396 5.61882 1.68985 7.014 1.68985H14.9201C15.0604 1.68985 15.2029 1.68985 15.3432 1.70253C16.9421 1.79826 18.4582 2.42101 19.6371 3.4663C19.7422 3.55793 19.8161 3.678 19.8491 3.81078C19.8822 3.94356 19.8729 4.08288 19.8225 4.21048C19.772 4.33809 19.6828 4.44804 19.5664 4.52594C19.45 4.60384 19.3119 4.64607 19.1702 4.64708H10.9594Z" fill="#A9FF35"/>
</g>
<defs>
<clipPath id="clip0_1595_30465">
<rect width="88" height="21" fill="white"/>
</clipPath>
</defs>
</svg>
