<svg width="20" height="22" viewBox="0 0 20 22" fill="none" xmlns="http://www.w3.org/2000/svg">
<rect x="0.5" y="10.5" width="19" height="1.3" rx="0.65" fill="#202732"/>
<path fill-rule="evenodd" clip-rule="evenodd" d="M6.2 4C6.2 5.21503 5.21503 6.2 4 6.2C2.78497 6.2 1.8 5.21503 1.8 4C1.8 2.78497 2.78497 1.8 4 1.8C5.21503 1.8 6.2 2.78497 6.2 4ZM7.43976 4.65001C7.13506 6.27242 5.71089 7.5 4 7.5C2.067 7.5 0.5 5.933 0.5 4C0.5 2.067 2.067 0.5 4 0.5C5.71089 0.5 7.13507 1.72759 7.43976 3.35001H18.85C19.209 3.35001 19.5 3.64102 19.5 4.00001C19.5 4.35899 19.209 4.65001 18.85 4.65001H7.43976Z" fill="#202732"/>
<path fill-rule="evenodd" clip-rule="evenodd" d="M18.2 18C18.2 19.215 17.215 20.2 16 20.2C14.785 20.2 13.8 19.215 13.8 18C13.8 16.785 14.785 15.8 16 15.8C17.215 15.8 18.2 16.785 18.2 18ZM19.5 18C19.5 19.933 17.933 21.5 16 21.5C14.2891 21.5 12.8649 20.2724 12.5602 18.65H1.15C0.791014 18.65 0.5 18.359 0.5 18C0.5 17.641 0.791015 17.35 1.15 17.35H12.5602C12.8649 15.7276 14.2891 14.5 16 14.5C17.933 14.5 19.5 16.067 19.5 18Z" fill="#202732"/>
</svg>
