<svg width="10" height="18" viewBox="0 0 10 18" fill="none" xmlns="http://www.w3.org/2000/svg">
<path d="M5.07215 0.5C2.61549 0.5 0.624023 2.47234 0.624023 4.90527C0.624023 7.33827 2.61549 9.31074 5.07215 9.31074C7.52882 9.31074 9.52028 7.33827 9.52028 4.90527C9.52028 2.47234 7.52882 0.5 5.07215 0.5ZM5.07215 6.72644C4.05665 6.72644 3.2334 5.91105 3.2334 4.90534C3.2334 3.89962 4.05665 3.08429 5.07215 3.08429C6.08765 3.08429 6.91091 3.89962 6.91091 4.90534C6.91091 5.91105 6.08765 6.72644 5.07215 6.72644Z" fill="white"/>
<path d="M6.64279 12.8162C8.42356 12.457 9.49068 11.6218 9.54715 11.5769C10.0682 11.1631 10.1519 10.4092 9.73404 9.89308C9.3162 9.37702 8.55507 9.29412 8.03386 9.70793C8.02285 9.71675 6.88468 10.5814 5.012 10.5827C3.13938 10.5814 1.97715 9.71675 1.96614 9.70793C1.44493 9.29412 0.683795 9.37702 0.26596 9.89308C-0.15194 10.4092 -0.0682323 11.1631 0.452853 11.5769C0.510079 11.6224 1.62125 12.4793 3.45193 12.8302L0.900544 15.4709C0.436876 15.9471 0.450816 16.7054 0.931671 17.1646C1.16637 17.3887 1.46886 17.5001 1.7711 17.5001C2.08798 17.5001 2.40454 17.3775 2.64184 17.1337L5.01206 14.6331L7.62169 17.1499C8.09452 17.6174 8.86018 17.6167 9.33212 17.1486C9.80406 16.6804 9.80349 15.922 9.33078 15.4546L6.64279 12.8162Z" fill="white"/>
</svg>
