<svg width="17" height="15" viewBox="0 0 17 15" fill="none" xmlns="http://www.w3.org/2000/svg">
<path d="M12.0438 11.161C12.146 11.1376 12.218 11.12 12.29 11.1047C13.3623 10.8757 14.0922 10.274 14.2956 9.16568C14.5143 7.97228 14.5256 6.76628 14.297 5.57423C14.1377 4.74533 13.6346 4.14863 12.8556 3.80213C12.2819 3.54698 11.6699 3.50918 11.0547 3.50918C7.72471 3.50693 4.39426 3.50783 1.06426 3.50918C0.98551 3.50918 0.90631 3.51638 0.82666 3.51998V14.8501H3.67291V11.1713C3.74041 11.1673 3.77731 11.1632 3.81421 11.1632C5.52016 11.1628 7.22656 11.165 8.93251 11.1587C9.07786 11.1583 9.14356 11.2253 9.21376 11.3306C9.96751 12.4543 10.7262 13.5743 11.4773 14.6998C11.5574 14.8199 11.6415 14.8667 11.7864 14.8658C12.7143 14.8604 13.6422 14.8649 14.5701 14.8645C14.625 14.8645 14.6799 14.8528 14.7627 14.8433C13.8515 13.6094 12.9596 12.4016 12.0438 11.1614V11.161ZM11.565 8.03753C11.5506 8.39258 11.3594 8.57978 11.007 8.62973C10.8374 8.65403 10.6641 8.66393 10.4922 8.66393C8.28496 8.66618 6.07726 8.66573 3.86956 8.66528C3.81106 8.66528 3.75256 8.65943 3.67201 8.65493V6.02783C3.75616 6.02333 3.83491 6.01523 3.91321 6.01478C6.12856 6.01433 8.34346 6.01343 10.5584 6.01658C10.7289 6.01703 10.9035 6.03053 11.0696 6.06833C11.3895 6.14078 11.5524 6.31808 11.5655 6.64658C11.5844 7.10963 11.5839 7.57448 11.565 8.03753Z" fill="white"/>
<path d="M15.3289 3.66519C16.1511 3.66519 16.8175 2.99872 16.8175 2.17659C16.8175 1.35446 16.1511 0.687988 15.3289 0.687988C14.5068 0.687988 13.8403 1.35446 13.8403 2.17659C13.8403 2.99872 14.5068 3.66519 15.3289 3.66519Z" fill="white"/>
</svg>
