<svg width="18" height="19" viewBox="0 0 18 19" fill="none" xmlns="http://www.w3.org/2000/svg">
<path fill-rule="evenodd" clip-rule="evenodd" d="M13 8.5C13 11.2614 10.7614 13.5 8 13.5C5.23858 13.5 3 11.2614 3 8.5C3 5.73858 5.23858 3.5 8 3.5C10.7614 3.5 13 5.73858 13 8.5ZM12.1921 14.1064C11.0235 14.9816 9.57231 15.5 8 15.5C4.13401 15.5 1 12.366 1 8.5C1 4.63401 4.13401 1.5 8 1.5C11.866 1.5 15 4.63401 15 8.5C15 10.0724 14.4816 11.5236 13.6063 12.6922L16.364 15.4498C16.7545 15.8404 16.7545 16.4735 16.364 16.8641C15.9734 17.2546 15.3403 17.2546 14.9497 16.8641L12.1921 14.1064Z" fill="#A9FF35"/>
</svg>
