<svg width="40" height="40" viewBox="0 0 40 40" fill="none" xmlns="http://www.w3.org/2000/svg">
<g clip-path="url(#clip0_1566_31756)">
<path d="M36.4371 6.90711C30.9336 5.39915 25.3977 3.05111 20.428 0.116894C20.164 -0.0389648 19.8364 -0.0389648 19.5725 0.116894C14.4594 3.1354 9.22266 5.35641 3.56291 6.90711C3.19728 7.00719 2.94385 7.33954 2.94385 7.71868V16.316C2.94385 25.1693 7.02814 31.0296 10.4545 34.3867C14.1433 38.0012 18.4401 40 20.0002 40C21.5601 40 25.857 38.0012 29.5457 34.3867C32.9721 31.0297 37.0561 25.1694 37.0561 16.316V7.7186C37.0561 7.33954 36.8027 7.00719 36.4371 6.90711ZM35.3733 16.3159C35.3733 24.5849 31.5639 30.0532 28.3679 33.1846C24.7405 36.7389 20.8622 38.3171 20.0002 38.3171C19.1383 38.3171 15.2597 36.7389 11.6322 33.1846C8.43634 30.0532 4.62674 24.5849 4.62674 16.3159V8.35735C10.0391 6.82063 15.0795 4.67603 20.0004 1.81642C24.7983 4.60017 30.0903 6.85141 35.3733 8.35703V16.3159Z" fill="#A9FF35"/>
<path d="M15 19.5L19.5 24L27.5 16" stroke="#A9FF35" stroke-width="2" stroke-linecap="round"/>
</g>
<defs>
<clipPath id="clip0_1566_31756">
<rect width="40" height="40" fill="white"/>
</clipPath>
</defs>
</svg>
