<svg width="19" height="22" viewBox="0 0 19 22" fill="none" xmlns="http://www.w3.org/2000/svg">
<path d="M15.8159 0C15.9873 0.0399609 16.1599 0.0751953 16.3295 0.120312C17.945 0.550859 19.0805 2.08441 18.9952 3.71937C18.9027 5.49699 17.6479 6.9227 15.9323 7.16289C14.8045 7.32059 13.8126 6.99316 12.9716 6.21457C12.9141 6.16129 12.8583 6.10672 12.8016 6.05344C12.7969 6.04871 12.7888 6.04785 12.7619 6.03625C10.8204 7.24883 8.86781 8.46785 6.90541 9.69332C7.22509 10.566 7.22466 11.4344 6.90541 12.3067C8.86355 13.5296 10.8119 14.746 12.7713 15.9698C12.8919 15.8602 13.0087 15.7476 13.1319 15.6432C14.2977 14.6562 15.9408 14.5213 17.2485 15.3042C18.5571 16.0875 19.2258 17.6168 18.9232 19.1344C18.6312 20.5988 17.4211 21.743 15.934 21.9618C15.8935 21.9678 15.8556 21.9871 15.8159 22.0004H15.0487C14.677 21.8896 14.287 21.8191 13.9362 21.6605C12.2965 20.9198 11.4802 19.0571 12.022 17.3271C12.0782 17.1475 12.0574 17.062 11.8877 16.9568C10.0429 15.8159 8.20543 14.6639 6.36622 13.515C6.32444 13.4887 6.28139 13.4655 6.22215 13.4312C5.33941 14.3327 4.27637 14.7443 3.02237 14.5561C2.12301 14.4212 1.3788 13.9816 0.805508 13.2683C-0.376025 11.7971 -0.243038 9.71867 1.10771 8.39996C2.412 7.12637 4.67746 6.95449 6.22939 8.57055C6.4651 8.42359 6.70507 8.27363 6.94505 8.12367C8.60993 7.08426 10.274 6.04355 11.941 5.00801C12.0603 4.9341 12.0821 4.87395 12.0386 4.73602C11.3498 2.55492 12.692 0.393164 14.9498 0.0352344C14.9839 0.0296484 15.0159 0.0124609 15.0491 0.000429687H15.8163L15.8159 0ZM15.4217 20.6821C16.6705 20.6843 17.6863 19.6689 17.6922 18.4125C17.6982 17.1467 16.6833 16.1154 15.4285 16.1129C14.18 16.1107 13.1694 17.1222 13.16 18.3837C13.1502 19.6513 14.1625 20.68 15.4217 20.6817V20.6821ZM15.4195 1.31742C14.1681 1.32043 13.1643 2.33277 13.16 3.59605C13.1558 4.86191 14.1758 5.89059 15.431 5.88672C16.6761 5.88328 17.6909 4.85934 17.6922 3.60594C17.6935 2.3375 16.6778 1.31441 15.4195 1.31742ZM3.57521 8.71707C2.3242 8.71621 1.31785 9.72469 1.30932 10.9888C1.30037 12.2551 2.3161 13.2838 3.57435 13.2834C4.82408 13.2825 5.83768 12.2671 5.84237 11.0112C5.84706 9.74316 4.83389 8.71793 3.57521 8.71707Z" fill="#202732"/>
</svg>
