<svg width="1192" height="400" viewBox="0 0 1192 400" fill="none" xmlns="http://www.w3.org/2000/svg">
<mask id="mask0_3232_32273" style="mask-type:alpha" maskUnits="userSpaceOnUse" x="0" y="0" width="1192" height="400">
<rect width="1192" height="400" fill="#D9D9D9"/>
</mask>
<g mask="url(#mask0_3232_32273)">
<path d="M575.838 302.661L494.229 430.874L598.743 320.545L498.949 435.171L618.725 341.651L502.972 440.114L635.331 365.5L506.205 445.601L648.213 391.562L508.598 451.501L657.072 419.241L510.085 457.7L661.703 447.943L510.628 464.054L662 477.02L510.214 470.42L657.965 505.812L508.856 476.645L649.687 533.673L506.593 482.597L637.362 559.993L503.463 488.161L621.247 584.179L499.544 493.182L601.705 605.699L494.927 497.569L579.175 624.061L489.702 501.205L554.162 638.852L483.986 504.039L527.235 649.761L477.92 505.98L498.975 656.515L471.621 506.99L470.018 659L465.258 507.054L441.021 657.124L458.947 506.174L412.632 650.951L452.842 504.363L385.472 640.612L447.074 501.658L360.162 626.339L441.771 498.113L337.257 608.455L437.051 493.829L317.275 587.349L433.028 488.886L300.656 563.5L429.795 483.399L287.787 537.438L427.402 477.486L278.928 509.746L425.915 471.287L274.297 481.044L425.372 464.946L274 451.98L425.786 458.58L278.035 423.188L427.144 452.355L286.313 395.327L429.407 446.39L298.638 368.994L432.537 440.839L314.753 344.808L436.456 435.818L334.295 323.301L441.073 431.431L356.825 304.939L446.298 427.782L381.838 290.135L452.014 424.961L408.765 279.239L458.08 423.02L437.025 272.472L464.379 422.01L465.982 270L470.742 421.933L494.979 271.876L477.053 422.826L523.368 278.049L483.158 424.637L550.528 288.388L488.926 427.342L575.838 302.661Z" fill="url(#paint0_linear_3232_32273)"/>
</g>
<defs>
<linearGradient id="paint0_linear_3232_32273" x1="493.22" y1="399.5" x2="493.22" y2="270" gradientUnits="userSpaceOnUse">
<stop stop-color="#371C52"/>
<stop offset="1" stop-color="#B880DD"/>
</linearGradient>
</defs>
</svg>
