<svg width="16" height="14" viewBox="0 0 16 14" fill="none" xmlns="http://www.w3.org/2000/svg">
<path fill-rule="evenodd" clip-rule="evenodd" d="M13.1774 3.0084C10.8525 5.12716 6.77367 8.84435 6.77367 8.84435L6.53918 11.0724L5.48426 7.55404C5.48426 7.55404 10.2672 4.46707 12.9611 2.72823C13.0384 2.67867 13.1415 2.69583 13.1975 2.76889C13.2547 2.84195 13.2446 2.94614 13.1774 3.0084ZM15.7619 0.62178C15.6242 0.502977 15.4324 0.46867 15.2608 0.532836C12.6254 1.51884 4.50667 4.59691 1.18914 5.83767C0.978531 5.91645 0.841479 6.12102 0.848395 6.34528C0.855939 6.57018 1.00556 6.76522 1.22057 6.83066C2.70928 7.28046 4.66258 7.90624 4.66258 7.90624C4.66258 7.90624 5.57542 10.6921 6.05132 12.1088C6.11105 12.2867 6.24873 12.4265 6.43042 12.4747C6.61147 12.5224 6.80511 12.4722 6.94027 12.3432C7.70474 11.6139 8.88666 10.4862 8.88666 10.4862C8.88666 10.4862 11.1323 12.1501 12.4054 13.0669C12.6084 13.2117 12.8693 13.2479 13.1019 13.159C13.3345 13.0694 13.5049 12.8686 13.5571 12.6253C14.1034 10.0307 15.4287 3.46352 15.926 1.10334C15.9637 0.925457 15.9008 0.740582 15.7619 0.62178Z" fill="white"/>
</svg>
