<svg width="16" height="17" viewBox="0 0 16 17" fill="none" xmlns="http://www.w3.org/2000/svg">
<path d="M8 0.5C3.58875 0.5 0 4.089 0 8.5C0 12.911 3.58875 16.5 8 16.5C12.411 16.5 16 12.9113 16 8.5C16 4.08875 12.411 0.5 8 0.5ZM8 1.5C11.8597 1.5 15 4.64 15 8.5C15 9.90075 14.585 11.2052 13.8737 12.3007C13.51 10.5322 12.3593 9.0015 10.743 8.1675C11.2153 7.5705 11.5 6.8185 11.5 6C11.5 4.07 9.93 2.5 8 2.5C6.07 2.5 4.5 4.07 4.5 6C4.5 6.8185 4.78475 7.5705 5.257 8.1675C3.6405 9.0015 2.49 10.5322 2.12625 12.3007C1.415 11.2052 1 9.90075 1 8.5C1 4.64 4.14 1.5 8 1.5ZM5.5 6C5.5 4.6215 6.6215 3.5 8 3.5C9.3785 3.5 10.5 4.6215 10.5 6C10.5 7.3785 9.3785 8.5 8 8.5C6.6215 8.5 5.5 7.3785 5.5 6ZM8 15.5C6.045 15.5 4.2755 14.6932 3.00425 13.3965C3.04525 11.4327 4.2455 9.667 6.04375 8.901C6.6025 9.279 7.27575 9.5 8 9.5C8.724 9.5 9.3975 9.279 9.95625 8.901C11.7545 9.667 12.9548 11.4327 12.9958 13.3965C11.7245 14.6932 9.955 15.5 8 15.5Z" fill="#A9FF35"/>
</svg>
