<svg width="28" height="28" viewBox="0 0 28 28" fill="none" xmlns="http://www.w3.org/2000/svg">
<rect width="28" height="28" rx="14" fill="url(#paint0_linear_2958_29083)"/>
<g clip-path="url(#clip0_2958_29083)">
<path d="M14 6C9.58875 6 6 9.589 6 14C6 18.411 9.58875 22 14 22C18.411 22 22 18.4113 22 14C22 9.58875 18.411 6 14 6ZM14 7C17.8597 7 21 10.14 21 14C21 15.4008 20.585 16.7052 19.8737 17.8007C19.51 16.0322 18.3593 14.5015 16.743 13.6675C17.2153 13.0705 17.5 12.3185 17.5 11.5C17.5 9.57 15.93 8 14 8C12.07 8 10.5 9.57 10.5 11.5C10.5 12.3185 10.7847 13.0705 11.257 13.6675C9.6405 14.5015 8.49 16.0322 8.12625 17.8007C7.415 16.7052 7 15.4008 7 14C7 10.14 10.14 7 14 7ZM11.5 11.5C11.5 10.1215 12.6215 9 14 9C15.3785 9 16.5 10.1215 16.5 11.5C16.5 12.8785 15.3785 14 14 14C12.6215 14 11.5 12.8785 11.5 11.5ZM14 21C12.045 21 10.2755 20.1932 9.00425 18.8965C9.04525 16.9327 10.2455 15.167 12.0437 14.401C12.6025 14.779 13.2758 15 14 15C14.724 15 15.3975 14.779 15.9563 14.401C17.7545 15.167 18.9548 16.9327 18.9958 18.8965C17.7245 20.1932 15.955 21 14 21Z" fill="#1E242E"/>
</g>
<defs>
<linearGradient id="paint0_linear_2958_29083" x1="28" y1="-3.65562e-06" x2="-2.79461" y2="3.51472" gradientUnits="userSpaceOnUse">
<stop stop-color="#A9FF35"/>
<stop offset="1" stop-color="#BFFF3A"/>
</linearGradient>
<clipPath id="clip0_2958_29083">
<rect width="16" height="16" fill="white" transform="translate(6 6)"/>
</clipPath>
</defs>
</svg>
