<svg width="16" height="10" viewBox="0 0 16 10" fill="none" xmlns="http://www.w3.org/2000/svg">
<path fill-rule="evenodd" clip-rule="evenodd" d="M15.5264 8.35821C15.308 7.93319 15.0093 7.56248 14.7083 7.19531C14.2301 6.6109 13.7024 6.07609 13.1699 5.54481C12.752 5.12924 12.7496 4.97339 13.0731 4.49052C13.4674 3.90258 13.87 3.317 14.2443 2.71724C14.6504 2.06555 15.0813 1.42211 15.3009 0.673604C15.4273 0.239139 15.2643 0.0242675 14.8122 0.0183644C14.2325 0.00773893 13.654 0.0124614 13.0731 0.0171838C12.7213 0.0207257 12.4675 0.176567 12.3234 0.51186C12.1794 0.844793 12.0283 1.17418 11.8618 1.49649C11.3636 2.45869 10.8252 3.39374 10.0531 4.17058C9.9256 4.30045 9.78983 4.42441 9.61746 4.49407C9.39551 4.58379 9.24675 4.50823 9.18772 4.27565C9.16293 4.1753 9.1582 4.06905 9.1582 3.96633C9.15584 3.42089 9.15584 2.87663 9.15584 2.33237C9.15584 1.74324 9.16056 1.15529 9.15348 0.567349C9.14758 0.200179 9.01063 0.0230869 8.70485 0.0207257C7.78751 0.00891954 6.87018 0.00655831 5.9552 0.0207257C5.5963 0.0242675 5.43455 0.364284 5.62109 0.666521C5.65297 0.718468 5.68956 0.766873 5.7297 0.811736C6.08389 1.21787 6.22084 1.69483 6.2173 2.22611C6.21021 2.9699 6.21494 3.71368 6.21258 4.45747C6.21258 4.60386 6.21494 4.75144 6.20195 4.89784C6.16889 5.25674 5.94694 5.36536 5.64942 5.16111C5.52074 5.07375 5.40622 4.96513 5.30114 4.85179C4.65062 4.13162 4.19845 3.28512 3.78051 2.42091C3.50425 1.85304 3.26931 1.26863 3.06388 0.670063C2.97061 0.402064 2.87026 0.0998267 2.53497 0.0573247C1.83132 -0.0300407 1.12295 -0.00170597 0.415768 0.0384348C0.0946416 0.0608665 -0.0269615 0.253306 0.00491499 0.576794C0.0356109 0.888476 0.118254 1.18835 0.217425 1.48469C0.866762 3.42325 1.88681 5.16465 3.14771 6.76202C3.93045 7.75728 4.9139 8.51287 6.10514 8.97213C6.89143 9.27555 7.70369 9.40778 8.54665 9.28735C9.01299 9.21888 9.15584 9.05713 9.1582 8.58607C9.16056 8.06778 9.15466 7.54831 9.16056 7.03002C9.16647 6.605 9.37071 6.4527 9.78393 6.56014C10.0921 6.64042 10.3459 6.81987 10.595 7.00995C11.2916 7.54713 11.8559 8.21536 12.445 8.85997C12.7425 9.18464 13.0849 9.36173 13.5406 9.33458C14.0152 9.3086 14.4922 9.33104 14.9668 9.32749C15.0707 9.32749 15.1758 9.31805 15.275 9.2968C15.5559 9.23659 15.6681 9.08429 15.6598 8.80212C15.6551 8.64038 15.5973 8.49752 15.5264 8.35821Z" fill="white"/>
</svg>
